<?xml version="1.0" encoding="UTF-8" standalone="no"?>
<!-- Created with Inkscape (http://www.inkscape.org/) -->

<svg
   width="103.92896mm"
   height="62.411667mm"
   viewBox="0 0 103.92896 62.411667"
   version="1.1"
   id="svg22340"
   inkscape:version="1.1.1 (3bf5ae0d25, 2021-09-20)"
   sodipodi:docname="rm_example1_light.svg"
   xmlns:inkscape="http://www.inkscape.org/namespaces/inkscape"
   xmlns:sodipodi="http://sodipodi.sourceforge.net/DTD/sodipodi-0.dtd"
   xmlns="http://www.w3.org/2000/svg"
   xmlns:svg="http://www.w3.org/2000/svg">
  <sodipodi:namedview
     id="namedview22342"
     pagecolor="#ffffff"
     bordercolor="#111111"
     borderopacity="1"
     inkscape:pageshadow="0"
     inkscape:pageopacity="0"
     inkscape:pagecheckerboard="1"
     inkscape:document-units="mm"
     showgrid="false"
     inkscape:zoom="12.015825"
     inkscape:cx="304.72315"
     inkscape:cy="138.10954"
     inkscape:window-width="1920"
     inkscape:window-height="1051"
     inkscape:window-x="-9"
     inkscape:window-y="-9"
     inkscape:window-maximized="1"
     inkscape:current-layer="layer1"
     fit-margin-top="5"
     fit-margin-left="5"
     fit-margin-right="5"
     fit-margin-bottom="5"
     inkscape:snap-center="true"
     inkscape:snap-intersection-paths="true"
     inkscape:snap-smooth-nodes="true"
     inkscape:object-paths="true"
     inkscape:snap-global="true" />
  <defs
     id="defs22337" />
  <g
     inkscape:label="Layer 1"
     inkscape:groupmode="layer"
     id="layer1"
     transform="translate(-12.637217,-38.849246)">
    <path
       style="display:inline;fill:#000000;fill-opacity:1;fill-rule:nonzero;stroke:none;stroke-width:0.52917"
       d="m 23.718566,87.419472 -1.8,-0.533361 1.8,-0.533321 v 1.066682"
       id="path2984-6-5-8-2" />
    <path
       style="display:inline;fill:#000000;fill-opacity:1;fill-rule:nonzero;stroke:none;stroke-width:0.52917"
       d="m 61.218566,87.419463 -1.8,-0.533352 1.8,-0.533321 v 1.066673"
       id="path9658" />
    <path
       style="display:inline;fill:#000000;fill-opacity:1;fill-rule:nonzero;stroke:none;stroke-width:0.52917"
       d="m 66.795544,94.363387 -0.53336,1.800026 -0.53332,-1.800026 h 1.06668"
       id="path9658-5" />
    <path
       style="display:inline;fill:#000000;fill-opacity:1;fill-rule:nonzero;stroke:none;stroke-width:0.52917"
       d="m 95.118568,87.419431 1.799998,-0.53332 -1.799998,-0.533321 v 1.066641"
       id="path9660" />
    <path
       style="display:inline;fill:#000000;fill-opacity:1;fill-rule:nonzero;stroke:none;stroke-width:0.52917"
       d="m 57.618568,87.419431 1.799998,-0.53332 -1.799998,-0.533321 v 1.066641"
       id="path9662" />
    <path
       style="display:inline;fill:#000000;fill-opacity:1;fill-rule:nonzero;stroke:none;stroke-width:0.52917"
       d="m 100.23859,73.423107 0.53332,1.799998 0.53332,-1.799998 h -1.06664"
       id="path9664" />
    <path
       style="display:inline;fill:#000000;fill-opacity:1;fill-rule:nonzero;stroke:none;stroke-width:0.52917"
       d="m 100.23859,48.898086 0.53332,-1.799999 0.53332,1.799999 h -1.06664"
       id="path2984-6-5-8-2-9" />
    <path
       id="path3557-0-9"
       d="m 55.106678,45.98946 0.516335,1.108642 -0.516873,1.112486 c 0.207732,-0.104715 1.062378,-0.438456 1.79581,-0.657365 0.78365,-0.234891 1.495878,-0.39705 1.954103,-0.455124 -0.458229,-0.05829 -1.170834,-0.21933 -1.954158,-0.450862 C 56.16859,46.42378 55.6937,46.225351 55.106198,45.989484 Z"
       style="display:inline;fill:#000000;fill-opacity:1;fill-rule:nonzero;stroke:none;stroke-width:0.529166"
       sodipodi:nodetypes="ccccccc"
       inkscape:transform-center-x="7.0864571"
       inkscape:transform-center-y="0.0072602931" />
    <path
       style="display:inline;fill:none;stroke:#000000;stroke-width:0.524998;stroke-linecap:butt;stroke-linejoin:miter;stroke-miterlimit:4;stroke-dasharray:none;stroke-opacity:1"
       d="m 59.418566,74.66051 -7e-6,-26.999835"
       id="path2601"
       sodipodi:nodetypes="cc" />
    <path
       style="display:inline;fill:none;stroke:#000000;stroke-width:0.524998;stroke-linecap:butt;stroke-linejoin:miter;stroke-miterlimit:4;stroke-dasharray:none;stroke-opacity:1"
       d="M 22.481194,75.223105 H 58.856067"
       id="path2603" />
    <path
       style="display:inline;fill:none;stroke:#000000;stroke-width:0.524998;stroke-linecap:butt;stroke-linejoin:miter;stroke-miterlimit:4;stroke-dasharray:none;stroke-opacity:1"
       d="M 96.356062,75.223105 H 59.981063"
       id="path2605" />
    <path
       style="display:inline;fill:none;fill-opacity:1;stroke:#000000;stroke-width:0.375;stroke-linecap:round;stroke-linejoin:miter;stroke-miterlimit:4;stroke-dasharray:none;stroke-opacity:1"
       d="m 59.961893,46.952497 a 0.56260102,0.56249943 75.00149 0 1 -0.397725,0.689015 0.56260102,0.56249943 75.00149 0 1 -0.688942,-0.397844 0.56260102,0.56249943 75.00149 0 1 0.397719,-0.68901 0.56260102,0.56249943 75.00149 0 1 0.688948,0.397839 z"
       id="path5444" />
    <g
       id="g7128"
       style="display:inline;stroke-width:0.874011;stroke-miterlimit:4;stroke-dasharray:none"
       transform="matrix(0.42888109,0,0,0.42923135,16.556968,41.775108)">
      <path
         style="fill:none;fill-opacity:1;stroke:#000000;stroke-width:0.874011;stroke-linecap:round;stroke-linejoin:round;stroke-miterlimit:4;stroke-dasharray:none;stroke-opacity:1"
         d="M 3.3199484,87.604047 H 21.683068"
         id="path7108" />
      <path
         style="fill:none;fill-opacity:1;stroke:#000000;stroke-width:0.874011;stroke-linecap:round;stroke-linejoin:round;stroke-miterlimit:4;stroke-dasharray:none;stroke-opacity:1"
         d="m 4.8393684,87.604047 -1.51942,1.52004"
         id="path7110" />
      <path
         style="fill:none;fill-opacity:1;stroke:#000000;stroke-width:0.874011;stroke-linecap:round;stroke-linejoin:round;stroke-miterlimit:4;stroke-dasharray:none;stroke-opacity:1"
         d="m 11.219328,87.604047 -4.2326796,4.23442"
         id="path7112" />
      <path
         style="fill:none;fill-opacity:1;stroke:#000000;stroke-width:0.874011;stroke-linecap:round;stroke-linejoin:round;stroke-miterlimit:4;stroke-dasharray:none;stroke-opacity:1"
         d="m 14.676198,87.604047 -4.23268,4.23442"
         id="path7114" />
      <path
         style="fill:none;fill-opacity:1;stroke:#000000;stroke-width:0.874011;stroke-linecap:round;stroke-linejoin:round;stroke-miterlimit:4;stroke-dasharray:none;stroke-opacity:1"
         d="m 21.683078,90.376797 -1.46106,1.46167"
         id="path7116" />
      <path
         style="fill:none;fill-opacity:1;stroke:#000000;stroke-width:0.874011;stroke-linecap:round;stroke-linejoin:round;stroke-miterlimit:4;stroke-dasharray:none;stroke-opacity:1"
         d="m 18.133078,87.604047 -4.23267,4.23442"
         id="path7118" />
      <path
         style="fill:none;fill-opacity:1;stroke:#000000;stroke-width:0.874011;stroke-linecap:round;stroke-linejoin:round;stroke-miterlimit:4;stroke-dasharray:none;stroke-opacity:1"
         d="m 21.589948,87.604047 -4.23267,4.23442"
         id="path7120" />
      <path
         style="fill:none;fill-opacity:1;stroke:#000000;stroke-width:0.874011;stroke-linecap:round;stroke-linejoin:round;stroke-miterlimit:4;stroke-dasharray:none;stroke-opacity:1"
         d="m 7.7624684,87.604047 -4.23268,4.23442"
         id="path7122" />
      <path
         style="fill:none;fill-opacity:1;stroke:#000000;stroke-width:0.874012;stroke-linecap:round;stroke-linejoin:round;stroke-miterlimit:4;stroke-dasharray:none;stroke-opacity:1"
         d="m 13.813213,77.925737 a 1.3117307,1.3103099 0 0 1 -1.311737,1.310303 1.3117307,1.3103099 0 0 1 -1.311724,-1.310303 1.3117307,1.3103099 0 0 1 1.311724,-1.310304 1.3117307,1.3103099 0 0 1 1.311737,1.310304 z"
         id="path7124" />
      <path
         id="path7126"
         style="fill:none;fill-opacity:1;stroke:#000000;stroke-width:0.944882;stroke-linecap:round;stroke-linejoin:round;stroke-miterlimit:4;stroke-dasharray:none;stroke-opacity:1"
         d="m 16.70556,79.567671 4.606318,9.208446 H 10.839756 l 4.606319,-9.208449"
         transform="matrix(0.92537304,0,0,0.92461796,-2.3746397,5.5200531)" />
    </g>
    <g
       id="g7188"
       transform="matrix(0.42885173,0,0,0.4288476,91.207678,54.917775)"
       style="display:inline;stroke-width:0.874432;stroke-miterlimit:4;stroke-dasharray:none">
      <path
         style="fill:none;stroke:#000000;stroke-width:0.874432;stroke-linecap:round;stroke-linejoin:miter;stroke-miterlimit:4;stroke-dasharray:none;stroke-opacity:1"
         d="M 4.1351584,57.024937 H 22.498278"
         id="path7160" />
      <path
         style="fill:none;stroke:#000000;stroke-width:0.874432;stroke-linecap:round;stroke-linejoin:miter;stroke-miterlimit:4;stroke-dasharray:none;stroke-opacity:1"
         d="M 4.1351584,59.932577 H 22.498278"
         id="path7162" />
      <path
         style="fill:none;stroke:#000000;stroke-width:0.874432;stroke-linecap:round;stroke-linejoin:miter;stroke-miterlimit:4;stroke-dasharray:none;stroke-opacity:1"
         d="m 14.770238,58.478757 a 1.4535281,1.4538286 0 0 1 -1.45353,1.45382 1.4535281,1.4538286 0 0 1 -1.45352,-1.45382 1.4535281,1.4538286 0 0 1 1.45352,-1.45382 1.4535281,1.4538286 0 0 1 1.45353,1.45382 z"
         id="path7164" />
      <path
         style="fill:none;fill-opacity:1;stroke:#000000;stroke-width:0.874432;stroke-linecap:round;stroke-linejoin:miter;stroke-miterlimit:4;stroke-dasharray:none;stroke-opacity:1"
         d="m 14.628334,47.348597 a 1.3116408,1.3118903 0 0 1 -1.311647,1.311882 1.3116408,1.3118903 0 0 1 -1.311634,-1.311882 1.3116408,1.3118903 0 0 1 1.311634,-1.311882 1.3116408,1.3118903 0 0 1 1.311647,1.311882 z"
         id="path7166" />
      <path
         style="fill:none;stroke:#000000;stroke-width:0.874432;stroke-linecap:round;stroke-linejoin:miter;stroke-miterlimit:4;stroke-dasharray:none;stroke-opacity:1"
         d="m 19.659908,58.478757 a 1.4535281,1.4538286 0 0 1 -1.45353,1.45382 1.4535281,1.4538286 0 0 1 -1.45352,-1.45382 1.4535281,1.4538286 0 0 1 1.45352,-1.45382 1.4535281,1.4538286 0 0 1 1.45353,1.45382 z"
         id="path7168" />
      <path
         style="fill:none;stroke:#000000;stroke-width:0.874432;stroke-linecap:round;stroke-linejoin:miter;stroke-miterlimit:4;stroke-dasharray:none;stroke-opacity:1"
         d="m 9.8805684,58.478757 a 1.4535281,1.4538286 0 0 1 -1.45354,1.45382 1.4535281,1.4538286 0 0 1 -1.45352,-1.45382 1.4535281,1.4538286 0 0 1 1.45352,-1.45382 1.4535281,1.4538286 0 0 1 1.45354,1.45382 z"
         id="path7170" />
      <path
         style="fill:none;stroke:#000000;stroke-width:0.874432;stroke-linecap:round;stroke-linejoin:miter;stroke-miterlimit:4;stroke-dasharray:none;stroke-opacity:1"
         d="m 5.6545784,59.932577 -1.51942,1.51974"
         id="path7172" />
      <path
         style="fill:none;stroke:#000000;stroke-width:0.874432;stroke-linecap:round;stroke-linejoin:miter;stroke-miterlimit:4;stroke-dasharray:none;stroke-opacity:1"
         d="m 12.034538,59.932577 -4.2326796,4.23356"
         id="path7174" />
      <path
         style="fill:none;stroke:#000000;stroke-width:0.874432;stroke-linecap:round;stroke-linejoin:miter;stroke-miterlimit:4;stroke-dasharray:none;stroke-opacity:1"
         d="m 15.491408,59.932577 -4.23268,4.23356"
         id="path7176" />
      <path
         style="fill:none;stroke:#000000;stroke-width:0.874432;stroke-linecap:round;stroke-linejoin:miter;stroke-miterlimit:4;stroke-dasharray:none;stroke-opacity:1"
         d="m 22.498288,62.704757 -1.46107,1.46138"
         id="path7178" />
      <path
         style="fill:none;stroke:#000000;stroke-width:0.874432;stroke-linecap:round;stroke-linejoin:miter;stroke-miterlimit:4;stroke-dasharray:none;stroke-opacity:1"
         d="m 18.948278,59.932577 -4.23267,4.23356"
         id="path7180" />
      <path
         style="fill:none;stroke:#000000;stroke-width:0.874432;stroke-linecap:round;stroke-linejoin:miter;stroke-miterlimit:4;stroke-dasharray:none;stroke-opacity:1"
         d="m 22.405148,59.932577 -4.23268,4.23356"
         id="path7182" />
      <path
         style="fill:none;stroke:#000000;stroke-width:0.874432;stroke-linecap:round;stroke-linejoin:miter;stroke-miterlimit:4;stroke-dasharray:none;stroke-opacity:1"
         d="m 8.5776684,59.932577 -4.23268,4.23356"
         id="path7184" />
      <path
         id="path7186"
         style="fill:none;stroke:#000000;stroke-width:0.944882;stroke-linecap:round;stroke-linejoin:miter;stroke-miterlimit:4;stroke-dasharray:none;stroke-opacity:1"
         d="m 17.522113,48.987794 4.604695,9.195731 H 11.655402 l 4.604681,-9.195703"
         transform="matrix(0.92543641,0,0,0.92544532,-2.3149455,3.1792651)" />
    </g>
    <g
       id="g7248"
       transform="matrix(0.42885173,0,0,0.4288476,53.707679,54.917775)"
       style="display:inline;stroke-width:0.874432;stroke-miterlimit:4;stroke-dasharray:none">
      <path
         style="fill:none;stroke:#000000;stroke-width:0.874432;stroke-linecap:round;stroke-linejoin:miter;stroke-miterlimit:4;stroke-dasharray:none;stroke-opacity:1"
         d="M 4.1351584,57.024937 H 22.498278"
         id="path7220" />
      <path
         style="fill:none;stroke:#000000;stroke-width:0.874432;stroke-linecap:round;stroke-linejoin:miter;stroke-miterlimit:4;stroke-dasharray:none;stroke-opacity:1"
         d="M 4.1351584,59.932577 H 22.498278"
         id="path7222" />
      <path
         style="fill:none;stroke:#000000;stroke-width:0.874432;stroke-linecap:round;stroke-linejoin:miter;stroke-miterlimit:4;stroke-dasharray:none;stroke-opacity:1"
         d="m 14.770238,58.478757 a 1.4535281,1.4538286 0 0 1 -1.45353,1.45382 1.4535281,1.4538286 0 0 1 -1.45352,-1.45382 1.4535281,1.4538286 0 0 1 1.45352,-1.45382 1.4535281,1.4538286 0 0 1 1.45353,1.45382 z"
         id="path7224" />
      <path
         style="fill:none;fill-opacity:1;stroke:#000000;stroke-width:0.874432;stroke-linecap:round;stroke-linejoin:miter;stroke-miterlimit:4;stroke-dasharray:none;stroke-opacity:1"
         d="m 14.628334,47.348597 a 1.3116408,1.3118903 0 0 1 -1.311647,1.311882 1.3116408,1.3118903 0 0 1 -1.311634,-1.311882 1.3116408,1.3118903 0 0 1 1.311634,-1.311882 1.3116408,1.3118903 0 0 1 1.311647,1.311882 z"
         id="path7226" />
      <path
         style="fill:none;stroke:#000000;stroke-width:0.874432;stroke-linecap:round;stroke-linejoin:miter;stroke-miterlimit:4;stroke-dasharray:none;stroke-opacity:1"
         d="m 19.659908,58.478757 a 1.4535281,1.4538286 0 0 1 -1.45353,1.45382 1.4535281,1.4538286 0 0 1 -1.45352,-1.45382 1.4535281,1.4538286 0 0 1 1.45352,-1.45382 1.4535281,1.4538286 0 0 1 1.45353,1.45382 z"
         id="path7228" />
      <path
         style="fill:none;stroke:#000000;stroke-width:0.874432;stroke-linecap:round;stroke-linejoin:miter;stroke-miterlimit:4;stroke-dasharray:none;stroke-opacity:1"
         d="m 9.8805684,58.478757 a 1.4535281,1.4538286 0 0 1 -1.45354,1.45382 1.4535281,1.4538286 0 0 1 -1.45352,-1.45382 1.4535281,1.4538286 0 0 1 1.45352,-1.45382 1.4535281,1.4538286 0 0 1 1.45354,1.45382 z"
         id="path7230" />
      <path
         style="fill:none;stroke:#000000;stroke-width:0.874432;stroke-linecap:round;stroke-linejoin:miter;stroke-miterlimit:4;stroke-dasharray:none;stroke-opacity:1"
         d="m 5.6545784,59.932577 -1.51942,1.51974"
         id="path7232" />
      <path
         style="fill:none;stroke:#000000;stroke-width:0.874432;stroke-linecap:round;stroke-linejoin:miter;stroke-miterlimit:4;stroke-dasharray:none;stroke-opacity:1"
         d="m 12.034538,59.932577 -4.2326796,4.23356"
         id="path7234" />
      <path
         style="fill:none;stroke:#000000;stroke-width:0.874432;stroke-linecap:round;stroke-linejoin:miter;stroke-miterlimit:4;stroke-dasharray:none;stroke-opacity:1"
         d="m 15.491408,59.932577 -4.23268,4.23356"
         id="path7236" />
      <path
         style="fill:none;stroke:#000000;stroke-width:0.874432;stroke-linecap:round;stroke-linejoin:miter;stroke-miterlimit:4;stroke-dasharray:none;stroke-opacity:1"
         d="m 22.498288,62.704757 -1.46107,1.46138"
         id="path7238" />
      <path
         style="fill:none;stroke:#000000;stroke-width:0.874432;stroke-linecap:round;stroke-linejoin:miter;stroke-miterlimit:4;stroke-dasharray:none;stroke-opacity:1"
         d="m 18.948278,59.932577 -4.23267,4.23356"
         id="path7240" />
      <path
         style="fill:none;stroke:#000000;stroke-width:0.874432;stroke-linecap:round;stroke-linejoin:miter;stroke-miterlimit:4;stroke-dasharray:none;stroke-opacity:1"
         d="m 22.405148,59.932577 -4.23268,4.23356"
         id="path7242" />
      <path
         style="fill:none;stroke:#000000;stroke-width:0.874432;stroke-linecap:round;stroke-linejoin:miter;stroke-miterlimit:4;stroke-dasharray:none;stroke-opacity:1"
         d="m 8.5776684,59.932577 -4.23268,4.23356"
         id="path7244" />
      <path
         id="path7246"
         style="fill:none;stroke:#000000;stroke-width:0.944882;stroke-linecap:round;stroke-linejoin:miter;stroke-miterlimit:4;stroke-dasharray:none;stroke-opacity:1"
         d="m 17.522113,48.987794 4.604695,9.195731 H 11.655402 l 4.604681,-9.195703"
         transform="matrix(0.92543641,0,0,0.92544532,-2.3149455,3.1792651)" />
    </g>
    <path
       style="display:inline;fill:none;stroke:#000000;stroke-width:0.195;stroke-linecap:round;stroke-linejoin:miter;stroke-miterlimit:4;stroke-dasharray:none;stroke-opacity:1"
       d="m 21.918566,83.92623 v 4.787046"
       id="path7473" />
    <path
       style="display:inline;fill:none;stroke:#000000;stroke-width:0.195;stroke-linecap:round;stroke-linejoin:miter;stroke-miterlimit:4;stroke-dasharray:none;stroke-opacity:1"
       d="m 96.918566,83.92623 v 4.787046"
       id="path7473-7" />
    <path
       style="display:inline;fill:none;stroke:#000000;stroke-width:0.195;stroke-linecap:round;stroke-linejoin:miter;stroke-miterlimit:4;stroke-dasharray:none;stroke-opacity:1"
       d="m 59.418566,83.92623 v 4.787046"
       id="path7939" />
    <path
       style="display:inline;fill:none;stroke:#000000;stroke-width:0.195;stroke-linecap:round;stroke-linejoin:miter;stroke-miterlimit:4;stroke-dasharray:none;stroke-opacity:1"
       d="M 102.25768,75.223105 H 99.286136"
       id="path7941" />
    <path
       style="display:inline;fill:none;stroke:#000000;stroke-width:0.195;stroke-linecap:round;stroke-linejoin:miter;stroke-miterlimit:4;stroke-dasharray:none;stroke-opacity:1"
       d="M 102.25768,47.098087 H 99.286136"
       id="path7941-2" />
    <path
       style="display:inline;fill:none;stroke:#000000;stroke-width:0.195;stroke-linecap:round;stroke-linejoin:miter;stroke-miterlimit:4;stroke-dasharray:none;stroke-opacity:1"
       d="M 23.718566,86.886111 H 57.618568"
       id="path7610" />
    <path
       style="display:inline;fill:none;stroke:#000000;stroke-width:0.195;stroke-linecap:round;stroke-linejoin:miter;stroke-miterlimit:4;stroke-dasharray:none;stroke-opacity:1"
       d="M 100.77191,73.423107 V 48.898086"
       id="path8058" />
    <path
       style="display:inline;fill:none;stroke:#000000;stroke-width:0.675002;stroke-linecap:round;stroke-linejoin:miter;stroke-miterlimit:4;stroke-dasharray:none;stroke-opacity:1"
       d="M 55.623013,47.098099 H 44.818523"
       id="path9554"
       sodipodi:nodetypes="cc" />
    <path
       id="path3557-0-9-9"
       d="m 56.238693,72.10706 -0.107161,1.21828 -1.003869,0.705005 c 0.232258,0.01318 1.139275,0.151474 1.8839,0.32861 0.796106,0.188403 1.493993,0.404084 1.919864,0.582902 -0.367692,-0.279595 -0.904307,-0.775362 -1.466918,-1.367537 -0.523333,-0.560172 -0.835385,-0.969461 -1.226243,-1.467479 z"
       style="display:inline;fill:#000000;fill-opacity:1;fill-rule:nonzero;stroke:none;stroke-width:0.529166"
       sodipodi:nodetypes="ccccccc"
       inkscape:transform-center-x="2.3890211"
       inkscape:transform-center-y="-1.6987582" />
    <path
       style="display:inline;fill:none;stroke:#000000;stroke-width:0.195;stroke-linecap:round;stroke-linejoin:miter;stroke-miterlimit:4;stroke-dasharray:none;stroke-opacity:1"
       d="M 64.761802,80.619717 H 67.76257"
       id="path2582" />
    <path
       style="display:inline;fill:none;stroke:#000000;stroke-width:0.195;stroke-linecap:round;stroke-linejoin:miter;stroke-miterlimit:4;stroke-dasharray:none;stroke-opacity:1"
       d="M 64.761802,96.163413 H 67.76257"
       id="path2582-0" />
    <path
       style="display:inline;fill:none;stroke:#000000;stroke-width:0.195;stroke-linecap:round;stroke-linejoin:miter;stroke-miterlimit:4;stroke-dasharray:none;stroke-opacity:1"
       d="m 66.262187,80.619717 v 13.74367"
       id="path2719" />
    <path
       style="display:inline;fill:#000000;fill-opacity:1;fill-rule:nonzero;stroke:none;stroke-width:0.52917"
       d="m 104.19667,94.363387 -0.53336,1.800026 -0.53332,-1.800026 h 1.06668"
       id="path9658-5-6" />
    <path
       style="display:inline;fill:none;stroke:#000000;stroke-width:0.195;stroke-linecap:round;stroke-linejoin:miter;stroke-miterlimit:4;stroke-dasharray:none;stroke-opacity:1"
       d="m 102.16292,80.619717 h 3.00077"
       id="path2582-7" />
    <path
       style="display:inline;fill:none;stroke:#000000;stroke-width:0.195;stroke-linecap:round;stroke-linejoin:miter;stroke-miterlimit:4;stroke-dasharray:none;stroke-opacity:1"
       d="m 102.16292,96.163413 h 3.00077"
       id="path2582-0-6" />
    <path
       style="display:inline;fill:none;stroke:#000000;stroke-width:0.195;stroke-linecap:round;stroke-linejoin:miter;stroke-miterlimit:4;stroke-dasharray:none;stroke-opacity:1"
       d="m 103.66331,80.619717 v 13.74367"
       id="path2719-9" />
    <g
       style="display:inline;fill:#000000;fill-opacity:1"
       id="g825"
       transform="matrix(0.52916664,0,0,0.52916664,-80.598998,-13.246823)">
      <g
         id="use823"
         transform="translate(185.362,168.403)">
        <path
           style="stroke:none"
           d="M 1.421875,-0.921875 C 1.109375,-0.375 0.796875,-0.265625 0.453125,-0.25 0.34375,-0.234375 0.28125,-0.234375 0.28125,-0.09375 0.28125,-0.046875 0.3125,0 0.375,0 0.59375,0 0.84375,-0.03125 1.0625,-0.03125 1.328125,-0.03125 1.609375,0 1.859375,0 c 0.046875,0 0.15625,0 0.15625,-0.15625 0,-0.078125 -0.078125,-0.09375 -0.125,-0.09375 -0.1875,-0.015625 -0.375,-0.078125 -0.375,-0.28125 0,-0.09375 0.046875,-0.171875 0.109375,-0.296875 L 2.234375,-1.84375 h 2 c 0.015625,0.171875 0.125,1.25 0.125,1.328125 0,0.25 -0.421875,0.265625 -0.578125,0.265625 -0.109375,0 -0.1875,0 -0.1875,0.15625 C 3.59375,0 3.6875,0 3.703125,0 4.03125,0 4.375,-0.03125 4.703125,-0.03125 4.90625,-0.03125 5.40625,0 5.609375,0 5.65625,0 5.75,0 5.75,-0.15625 5.75,-0.25 5.671875,-0.25 5.5625,-0.25 c -0.5,0 -0.5,-0.046875 -0.515625,-0.28125 L 4.5625,-5.515625 c -0.015625,-0.15625 -0.015625,-0.1875 -0.15625,-0.1875 -0.125,0 -0.15625,0.046875 -0.203125,0.140625 z M 2.375,-2.09375 l 1.578125,-2.625 0.25,2.625 z m 0,0"
           id="path2294" />
      </g>
    </g>
    <g
       style="display:inline;fill:#000000;fill-opacity:1"
       id="g829"
       transform="matrix(0.52916664,0,0,0.52916664,-42.195103,-14.912726)">
      <g
         id="use827"
         transform="translate(193.55524,168.403)">
        <path
           style="stroke:none"
           d="M 1.28125,-0.625 C 1.1875,-0.3125 1.171875,-0.25 0.546875,-0.25 c -0.125,0 -0.21875,0 -0.21875,0.15625 C 0.328125,0 0.40625,0 0.546875,0 h 2.84375 C 4.65625,0 5.59375,-0.9375 5.59375,-1.71875 5.59375,-2.296875 5.125,-2.75 4.359375,-2.84375 5.1875,-3 6.03125,-3.578125 6.03125,-4.34375 6.03125,-4.9375 5.5,-5.4375 4.546875,-5.4375 h -2.6875 c -0.140625,0 -0.21875,0 -0.21875,0.15625 0,0.078125 0.0625,0.078125 0.21875,0.078125 0.015625,0 0.171875,0 0.296875,0.03125 0.140625,0.015625 0.21875,0.015625 0.21875,0.125 0,0.03125 -0.015625,0.046875 -0.03125,0.140625 z m 1.203125,-2.296875 0.484375,-1.96875 c 0.078125,-0.28125 0.09375,-0.3125 0.4375,-0.3125 H 4.4375 c 0.6875,0 0.859375,0.484375 0.859375,0.828125 0,0.703125 -0.6875,1.453125 -1.65625,1.453125 z M 2.125,-0.25 c -0.109375,0 -0.140625,0 -0.1875,0 -0.078125,-0.015625 -0.09375,-0.015625 -0.09375,-0.078125 0,-0.03125 0,-0.046875 0.03125,-0.1875 l 0.5625,-2.21875 h 1.5 c 0.765625,0 0.921875,0.578125 0.921875,0.921875 0,0.796875 -0.71875,1.5625 -1.65625,1.5625 z m 0,0"
           id="path2298" />
      </g>
    </g>
    <g
       style="display:inline;fill:#000000;fill-opacity:1"
       id="g833"
       transform="matrix(0.52916664,0,0,0.52916664,-11.037832,-15.526914)">
      <g
         id="use831"
         transform="translate(202.21474,168.403)">
        <path
           style="stroke:none"
           d="m 6.0625,-5.53125 c 0,-0.03125 -0.015625,-0.09375 -0.09375,-0.09375 -0.03125,0 -0.03125,0.015625 -0.125,0.109375 L 5.296875,-4.90625 C 5.21875,-5.015625 4.859375,-5.625 3.96875,-5.625 c -1.78125,0 -3.578125,1.765625 -3.578125,3.609375 0,1.328125 0.953125,2.1875 2.171875,2.1875 0.6875,0 1.296875,-0.3125 1.71875,-0.6875 0.734375,-0.640625 0.875,-1.375 0.875,-1.390625 0,-0.078125 -0.078125,-0.078125 -0.09375,-0.078125 -0.046875,0 -0.09375,0.015625 -0.109375,0.078125 -0.0625,0.21875 -0.25,0.796875 -0.796875,1.25 -0.546875,0.453125 -1.0625,0.578125 -1.46875,0.578125 -0.71875,0 -1.5625,-0.40625 -1.5625,-1.65625 0,-0.453125 0.171875,-1.734375 0.96875,-2.671875 0.484375,-0.5625 1.234375,-0.96875 1.9375,-0.96875 0.8125,0 1.28125,0.625 1.28125,1.546875 0,0.3125 -0.015625,0.328125 -0.015625,0.40625 0,0.078125 0.078125,0.078125 0.109375,0.078125 0.109375,0 0.109375,-0.015625 0.140625,-0.15625 z m 0,0"
           id="path2302" />
      </g>
    </g>
    <g
       style="display:inline;fill:#000000;fill-opacity:1"
       id="g837"
       transform="matrix(0.52916664,0,0,0.52916664,-50.881057,-42.38666)">
      <g
         id="use835"
         transform="translate(210.6925,168.403)">
        <path
           style="stroke:none"
           d="M 1.265625,-0.625 C 1.1875,-0.3125 1.171875,-0.25 0.546875,-0.25 0.40625,-0.25 0.3125,-0.25 0.3125,-0.09375 0.3125,0 0.390625,0 0.546875,0 h 2.625 C 4.84375,0 6.40625,-1.6875 6.40625,-3.421875 c 0,-1.125 -0.671875,-2.015625 -1.875,-2.015625 H 1.859375 c -0.15625,0 -0.234375,0 -0.234375,0.140625 0,0.09375 0.0625,0.09375 0.21875,0.09375 0.109375,0 0.25,0.015625 0.34375,0.03125 0.125,0.015625 0.171875,0.03125 0.171875,0.125 0,0.03125 0,0.046875 -0.03125,0.140625 z m 1.71875,-4.265625 c 0.078125,-0.28125 0.09375,-0.3125 0.4375,-0.3125 h 0.84375 c 0.78125,0 1.453125,0.4375 1.453125,1.484375 0,0.390625 -0.171875,1.6875 -0.84375,2.578125 C 4.640625,-0.859375 4.015625,-0.25 3.03125,-0.25 H 2.140625 c -0.109375,0 -0.125,0 -0.1875,0 -0.078125,-0.015625 -0.09375,-0.015625 -0.09375,-0.078125 0,-0.03125 0,-0.046875 0.03125,-0.1875 z m 0,0"
           id="path2306" />
      </g>
    </g>
    <g
       id="g4590"
       transform="matrix(0.396875,0,0,0.396875,-269.44707,-235.14015)"
       style="display:inline">
      <g
         style="fill:#000000;fill-opacity:1"
         id="g4582"
         transform="matrix(1.3333333,0,0,1.3333333,417.79544,597.87838)">
        <g
           id="g4580"
           transform="translate(269.22198,168.403)">
          <path
             style="stroke:none"
             d="M 1.046875,-2.609375 V -2.8125 c 0,-2.015625 1,-2.296875 1.40625,-2.296875 0.1875,0 0.515625,0.046875 0.6875,0.3125 -0.109375,0 -0.4375,0 -0.4375,0.359375 0,0.25 0.203125,0.375 0.375,0.375 0.125,0 0.359375,-0.078125 0.359375,-0.390625 0,-0.46875 -0.34375,-0.859375 -1,-0.859375 -1.03125,0 -2.109375,1.03125 -2.109375,2.796875 0,2.125 0.9375,2.6875 1.671875,2.6875 0.890625,0 1.640625,-0.75 1.640625,-1.796875 0,-1.015625 -0.703125,-1.78125 -1.59375,-1.78125 -0.546875,0 -0.828125,0.40625 -1,0.796875 z M 2,-0.046875 c -0.5,0 -0.734375,-0.484375 -0.78125,-0.59375 -0.15625,-0.375 -0.15625,-1.015625 -0.15625,-1.15625 0,-0.625 0.265625,-1.421875 0.984375,-1.421875 0.125,0 0.484375,0 0.734375,0.5 0.140625,0.28125 0.140625,0.6875 0.140625,1.078125 0,0.390625 0,0.78125 -0.140625,1.078125 C 2.546875,-0.09375 2.1875,-0.046875 2,-0.046875 Z m 0,0"
             id="path4578" />
        </g>
      </g>
      <g
         style="fill:#000000;fill-opacity:1"
         id="g4588"
         transform="matrix(1.3333333,0,0,1.3333333,417.79544,597.87838)">
        <g
           id="g4586"
           transform="translate(274.53561,168.403)">
          <path
             style="stroke:none"
             d="M 0.703125,-0.46875 C 0.671875,-0.34375 0.625,-0.171875 0.625,-0.125 c 0,0.140625 0.109375,0.21875 0.234375,0.21875 0.09375,0 0.234375,-0.0625 0.296875,-0.234375 0,-0.015625 0.109375,-0.390625 0.15625,-0.578125 L 1.484375,-1.4375 C 1.53125,-1.625 1.578125,-1.796875 1.625,-1.96875 c 0.03125,-0.140625 0.09375,-0.375 0.09375,-0.40625 0.125,-0.25 0.546875,-0.96875 1.296875,-0.96875 0.359375,0 0.4375,0.296875 0.4375,0.5625 0,0.1875 -0.0625,0.421875 -0.125,0.65625 l -0.21875,0.921875 -0.15625,0.609375 C 2.921875,-0.4375 2.84375,-0.171875 2.84375,-0.125 c 0,0.140625 0.109375,0.21875 0.234375,0.21875 0.25,0 0.296875,-0.203125 0.359375,-0.453125 0.109375,-0.453125 0.40625,-1.609375 0.46875,-1.921875 0.03125,-0.109375 0.453125,-1.0625 1.328125,-1.0625 0.328125,0 0.421875,0.265625 0.421875,0.5625 0,0.453125 -0.328125,1.359375 -0.5,1.78125 -0.0625,0.1875 -0.09375,0.28125 -0.09375,0.4375 0,0.375 0.28125,0.65625 0.65625,0.65625 0.75,0 1.03125,-1.171875 1.03125,-1.234375 0,-0.078125 -0.0625,-0.078125 -0.09375,-0.078125 -0.078125,0 -0.078125,0.03125 -0.109375,0.140625 -0.125,0.421875 -0.375,0.984375 -0.8125,0.984375 -0.140625,0 -0.203125,-0.078125 -0.203125,-0.25 0,-0.203125 0.078125,-0.390625 0.15625,-0.578125 0.140625,-0.40625 0.484375,-1.296875 0.484375,-1.75 0,-0.515625 -0.328125,-0.84375 -0.921875,-0.84375 -0.59375,0 -1,0.34375 -1.296875,0.765625 C 3.9375,-2.859375 3.921875,-3.125 3.703125,-3.3125 3.5,-3.484375 3.25,-3.515625 3.046875,-3.515625 c -0.71875,0 -1.109375,0.5 -1.25,0.6875 -0.03125,-0.453125 -0.375,-0.6875 -0.734375,-0.6875 -0.359375,0 -0.515625,0.296875 -0.578125,0.453125 -0.15625,0.28125 -0.25,0.75 -0.25,0.765625 0,0.078125 0.078125,0.078125 0.09375,0.078125 0.078125,0 0.09375,0 0.140625,-0.1875 0.125,-0.5625 0.28125,-0.9375 0.578125,-0.9375 0.125,0 0.25,0.0625 0.25,0.359375 0,0.171875 -0.03125,0.265625 -0.140625,0.671875 z m 0,0"
             id="path4584" />
        </g>
      </g>
    </g>
    <g
       id="g4576"
       transform="matrix(0.396875,0,0,0.396875,-234.12265,-235.14015)"
       style="display:inline">
      <g
         style="fill:#000000;fill-opacity:1"
         id="g865"
         transform="matrix(1.3333333,0,0,1.3333333,417.79544,597.87838)">
        <g
           id="use863"
           transform="translate(269.22198,168.403)">
          <path
             style="stroke:none"
             d="M 1.046875,-2.609375 V -2.8125 c 0,-2.015625 1,-2.296875 1.40625,-2.296875 0.1875,0 0.515625,0.046875 0.6875,0.3125 -0.109375,0 -0.4375,0 -0.4375,0.359375 0,0.25 0.203125,0.375 0.375,0.375 0.125,0 0.359375,-0.078125 0.359375,-0.390625 0,-0.46875 -0.34375,-0.859375 -1,-0.859375 -1.03125,0 -2.109375,1.03125 -2.109375,2.796875 0,2.125 0.9375,2.6875 1.671875,2.6875 0.890625,0 1.640625,-0.75 1.640625,-1.796875 0,-1.015625 -0.703125,-1.78125 -1.59375,-1.78125 -0.546875,0 -0.828125,0.40625 -1,0.796875 z M 2,-0.046875 c -0.5,0 -0.734375,-0.484375 -0.78125,-0.59375 -0.15625,-0.375 -0.15625,-1.015625 -0.15625,-1.15625 0,-0.625 0.265625,-1.421875 0.984375,-1.421875 0.125,0 0.484375,0 0.734375,0.5 0.140625,0.28125 0.140625,0.6875 0.140625,1.078125 0,0.390625 0,0.78125 -0.140625,1.078125 C 2.546875,-0.09375 2.1875,-0.046875 2,-0.046875 Z m 0,0"
             id="path2334" />
        </g>
      </g>
      <g
         style="fill:#000000;fill-opacity:1"
         id="g869"
         transform="matrix(1.3333333,0,0,1.3333333,417.79544,597.87838)">
        <g
           id="use867"
           transform="translate(274.53561,168.403)">
          <path
             style="stroke:none"
             d="M 0.703125,-0.46875 C 0.671875,-0.34375 0.625,-0.171875 0.625,-0.125 c 0,0.140625 0.109375,0.21875 0.234375,0.21875 0.09375,0 0.234375,-0.0625 0.296875,-0.234375 0,-0.015625 0.109375,-0.390625 0.15625,-0.578125 L 1.484375,-1.4375 C 1.53125,-1.625 1.578125,-1.796875 1.625,-1.96875 c 0.03125,-0.140625 0.09375,-0.375 0.09375,-0.40625 0.125,-0.25 0.546875,-0.96875 1.296875,-0.96875 0.359375,0 0.4375,0.296875 0.4375,0.5625 0,0.1875 -0.0625,0.421875 -0.125,0.65625 l -0.21875,0.921875 -0.15625,0.609375 C 2.921875,-0.4375 2.84375,-0.171875 2.84375,-0.125 c 0,0.140625 0.109375,0.21875 0.234375,0.21875 0.25,0 0.296875,-0.203125 0.359375,-0.453125 0.109375,-0.453125 0.40625,-1.609375 0.46875,-1.921875 0.03125,-0.109375 0.453125,-1.0625 1.328125,-1.0625 0.328125,0 0.421875,0.265625 0.421875,0.5625 0,0.453125 -0.328125,1.359375 -0.5,1.78125 -0.0625,0.1875 -0.09375,0.28125 -0.09375,0.4375 0,0.375 0.28125,0.65625 0.65625,0.65625 0.75,0 1.03125,-1.171875 1.03125,-1.234375 0,-0.078125 -0.0625,-0.078125 -0.09375,-0.078125 -0.078125,0 -0.078125,0.03125 -0.109375,0.140625 -0.125,0.421875 -0.375,0.984375 -0.8125,0.984375 -0.140625,0 -0.203125,-0.078125 -0.203125,-0.25 0,-0.203125 0.078125,-0.390625 0.15625,-0.578125 0.140625,-0.40625 0.484375,-1.296875 0.484375,-1.75 0,-0.515625 -0.328125,-0.84375 -0.921875,-0.84375 -0.59375,0 -1,0.34375 -1.296875,0.765625 C 3.9375,-2.859375 3.921875,-3.125 3.703125,-3.3125 3.5,-3.484375 3.25,-3.515625 3.046875,-3.515625 c -0.71875,0 -1.109375,0.5 -1.25,0.6875 -0.03125,-0.453125 -0.375,-0.6875 -0.734375,-0.6875 -0.359375,0 -0.515625,0.296875 -0.578125,0.453125 -0.15625,0.28125 -0.25,0.75 -0.25,0.765625 0,0.078125 0.078125,0.078125 0.09375,0.078125 0.078125,0 0.09375,0 0.140625,-0.1875 0.125,-0.5625 0.28125,-0.9375 0.578125,-0.9375 0.125,0 0.25,0.0625 0.25,0.359375 0,0.171875 -0.03125,0.265625 -0.140625,0.671875 z m 0,0"
             id="path2338" />
        </g>
      </g>
    </g>
    <g
       id="g9330"
       transform="matrix(0.396875,0,0,0.396875,-214.05981,-264.51215)"
       style="display:inline">
      <g
         style="fill:#000000;fill-opacity:1"
         id="g873"
         transform="matrix(1.3333333,0,0,1.3333333,417.79544,597.87838)">
        <g
           id="use871"
           transform="translate(283.7468,168.403)">
          <path
             style="stroke:none"
             d="m 2.34375,-1.3125 v 0.6875 c 0,0.296875 -0.015625,0.375 -0.609375,0.375 H 1.5625 V 0 c 0.328125,-0.03125 0.75,-0.03125 1.078125,-0.03125 0.34375,0 0.765625,0 1.09375,0.03125 V -0.25 H 3.5625 c -0.59375,0 -0.609375,-0.078125 -0.609375,-0.375 V -1.3125 H 3.75 v -0.25 H 2.953125 v -3.625 c 0,-0.15625 0,-0.203125 -0.125,-0.203125 -0.078125,0 -0.09375,0 -0.15625,0.09375 L 0.21875,-1.5625 v 0.25 z m 0.046875,-0.25 h -1.9375 l 1.9375,-2.96875 z m 0,0"
             id="path2342" />
        </g>
      </g>
      <g
         style="fill:#000000;fill-opacity:1"
         id="g877"
         transform="matrix(1.3333333,0,0,1.3333333,417.79544,597.87838)">
        <g
           id="use875"
           transform="translate(287.73239,168.403)">
          <path
             style="stroke:none"
             d="M 1.53125,-0.421875 C 1.53125,-0.65625 1.34375,-0.84375 1.109375,-0.84375 0.875,-0.84375 0.6875,-0.65625 0.6875,-0.421875 0.6875,-0.1875 0.875,0 1.109375,0 1.34375,0 1.53125,-0.1875 1.53125,-0.421875 Z m 0,0"
             id="path2346" />
        </g>
      </g>
      <g
         style="fill:#000000;fill-opacity:1"
         id="g881"
         transform="matrix(1.3333333,0,0,1.3333333,417.79544,597.87838)">
        <g
           id="use879"
           transform="translate(289.94601,168.403)">
          <path
             style="stroke:none"
             d="m 3.578125,-1.609375 c 0,-0.9375 -0.65625,-1.734375 -1.515625,-1.734375 -0.375,0 -0.71875,0.125 -1.015625,0.40625 V -4.5 c 0.171875,0.046875 0.421875,0.109375 0.6875,0.109375 0.96875,0 1.53125,-0.71875 1.53125,-0.828125 0,-0.046875 -0.015625,-0.09375 -0.078125,-0.09375 -0.015625,0 -0.03125,0 -0.0625,0.03125 -0.15625,0.0625 -0.546875,0.234375 -1.078125,0.234375 -0.328125,0 -0.6875,-0.0625 -1.0625,-0.234375 -0.0625,-0.015625 -0.078125,-0.015625 -0.09375,-0.015625 -0.078125,0 -0.078125,0.0625 -0.078125,0.1875 V -2.75 c 0,0.140625 0,0.203125 0.109375,0.203125 0.046875,0 0.0625,-0.015625 0.09375,-0.0625 0.09375,-0.125 0.390625,-0.5625 1.03125,-0.5625 0.421875,0 0.609375,0.359375 0.671875,0.515625 0.140625,0.296875 0.15625,0.59375 0.15625,1 0,0.28125 0,0.75 -0.203125,1.09375 C 2.484375,-0.25 2.1875,-0.046875 1.828125,-0.046875 1.25,-0.046875 0.78125,-0.46875 0.65625,-0.9375 c 0.015625,0 0.046875,0.015625 0.125,0.015625 0.265625,0 0.40625,-0.203125 0.40625,-0.390625 0,-0.1875 -0.140625,-0.390625 -0.40625,-0.390625 -0.109375,0 -0.390625,0.046875 -0.390625,0.421875 0,0.6875 0.5625,1.453125 1.453125,1.453125 0.921875,0 1.734375,-0.765625 1.734375,-1.78125 z m 0,0"
             id="path2350" />
        </g>
      </g>
      <g
         style="fill:#000000;fill-opacity:1"
         id="g885"
         transform="matrix(1.3333333,0,0,1.3333333,417.79544,597.87838)">
        <g
           id="use883"
           transform="translate(295.25961,168.403)">
          <path
             style="stroke:none"
             d="M 0.703125,-0.46875 C 0.671875,-0.34375 0.625,-0.171875 0.625,-0.125 c 0,0.140625 0.109375,0.21875 0.234375,0.21875 0.09375,0 0.234375,-0.0625 0.296875,-0.234375 0,-0.015625 0.109375,-0.390625 0.15625,-0.578125 L 1.484375,-1.4375 C 1.53125,-1.625 1.578125,-1.796875 1.625,-1.96875 c 0.03125,-0.140625 0.09375,-0.375 0.09375,-0.40625 0.125,-0.25 0.546875,-0.96875 1.296875,-0.96875 0.359375,0 0.4375,0.296875 0.4375,0.5625 0,0.1875 -0.0625,0.421875 -0.125,0.65625 l -0.21875,0.921875 -0.15625,0.609375 C 2.921875,-0.4375 2.84375,-0.171875 2.84375,-0.125 c 0,0.140625 0.109375,0.21875 0.234375,0.21875 0.25,0 0.296875,-0.203125 0.359375,-0.453125 0.109375,-0.453125 0.40625,-1.609375 0.46875,-1.921875 0.03125,-0.109375 0.453125,-1.0625 1.328125,-1.0625 0.328125,0 0.421875,0.265625 0.421875,0.5625 0,0.453125 -0.328125,1.359375 -0.5,1.78125 -0.0625,0.1875 -0.09375,0.28125 -0.09375,0.4375 0,0.375 0.28125,0.65625 0.65625,0.65625 0.75,0 1.03125,-1.171875 1.03125,-1.234375 0,-0.078125 -0.0625,-0.078125 -0.09375,-0.078125 -0.078125,0 -0.078125,0.03125 -0.109375,0.140625 -0.125,0.421875 -0.375,0.984375 -0.8125,0.984375 -0.140625,0 -0.203125,-0.078125 -0.203125,-0.25 0,-0.203125 0.078125,-0.390625 0.15625,-0.578125 0.140625,-0.40625 0.484375,-1.296875 0.484375,-1.75 0,-0.515625 -0.328125,-0.84375 -0.921875,-0.84375 -0.59375,0 -1,0.34375 -1.296875,0.765625 C 3.9375,-2.859375 3.921875,-3.125 3.703125,-3.3125 3.5,-3.484375 3.25,-3.515625 3.046875,-3.515625 c -0.71875,0 -1.109375,0.5 -1.25,0.6875 -0.03125,-0.453125 -0.375,-0.6875 -0.734375,-0.6875 -0.359375,0 -0.515625,0.296875 -0.578125,0.453125 -0.15625,0.28125 -0.25,0.75 -0.25,0.765625 0,0.078125 0.078125,0.078125 0.09375,0.078125 0.078125,0 0.09375,0 0.140625,-0.1875 0.125,-0.5625 0.28125,-0.9375 0.578125,-0.9375 0.125,0 0.25,0.0625 0.25,0.359375 0,0.171875 -0.03125,0.265625 -0.140625,0.671875 z m 0,0"
             id="path2354" />
        </g>
      </g>
    </g>
    <g
       id="g9338"
       transform="matrix(0.396875,0,0,0.396875,-266.28006,-231.97313)"
       style="display:inline">
      <g
         style="fill:#000000;fill-opacity:1"
         id="g889"
         transform="matrix(1.3333333,0,0,1.3333333,417.79544,597.87838)">
        <g
           id="use887"
           transform="translate(304.47302,168.403)">
          <path
             style="stroke:none"
             d="m 2.109375,-3.484375 c -1,0.234375 -1.78125,1.28125 -1.78125,2.234375 0,0.765625 0.515625,1.34375 1.265625,1.34375 0.9375,0 1.59375,-1.25 1.59375,-2.34375 0,-0.734375 -0.3125,-1.125 -0.59375,-1.484375 -0.28125,-0.359375 -0.75,-0.953125 -0.75,-1.3125 0,-0.171875 0.15625,-0.359375 0.4375,-0.359375 0.234375,0 0.390625,0.09375 0.5625,0.203125 C 3,-5.09375 3.15625,-5 3.28125,-5 c 0.203125,0 0.328125,-0.1875 0.328125,-0.3125 0,-0.171875 -0.140625,-0.203125 -0.421875,-0.265625 -0.421875,-0.09375 -0.53125,-0.09375 -0.65625,-0.09375 -0.625,0 -0.90625,0.34375 -0.90625,0.828125 0,0.421875 0.234375,0.875 0.484375,1.359375 z m 0.09375,0.171875 c 0.203125,0.375 0.4375,0.796875 0.4375,1.375 0,0.53125 -0.3125,1.859375 -1.046875,1.859375 -0.4375,0 -0.765625,-0.34375 -0.765625,-0.9375 0,-0.5 0.296875,-2 1.375,-2.296875 z m 0,0"
             id="path2358" />
        </g>
      </g>
      <g
         style="fill:#000000;fill-opacity:1"
         id="g893"
         transform="matrix(1.3333333,0,0,1.3333333,417.79544,597.87838)">
        <g
           id="use891"
           transform="translate(308.01321,169.599)">
          <path
             style="stroke:none"
             d="M 1.0625,-0.4375 C 1.015625,-0.25 1,-0.203125 0.5625,-0.203125 c -0.09375,0 -0.15625,0 -0.15625,0.125 C 0.40625,0 0.46875,0 0.5625,0 h 2.171875 c 0.9375,0 1.65625,-0.640625 1.65625,-1.1875 0,-0.40625 -0.375,-0.75 -0.953125,-0.796875 0.671875,-0.125 1.234375,-0.546875 1.234375,-1.03125 0,-0.421875 -0.4375,-0.796875 -1.15625,-0.796875 h -2.03125 c -0.109375,0 -0.171875,0 -0.171875,0.125 0,0.078125 0.0625,0.078125 0.171875,0.078125 0,0 0.109375,0 0.21875,0.015625 0.109375,0 0.125,0.015625 0.125,0.078125 0,0 0,0.03125 -0.03125,0.125 z m 0.890625,-1.625 0.34375,-1.359375 c 0.046875,-0.171875 0.046875,-0.1875 0.28125,-0.1875 h 0.84375 c 0.578125,0 0.703125,0.375 0.703125,0.59375 0,0.4375 -0.515625,0.953125 -1.265625,0.953125 z M 1.6875,-0.203125 c -0.171875,0 -0.1875,0 -0.1875,-0.046875 0,-0.015625 0,-0.046875 0.03125,-0.125 l 0.375,-1.53125 h 1.1875 c 0.53125,0 0.734375,0.34375 0.734375,0.671875 0,0.546875 -0.578125,1.03125 -1.25,1.03125 z m 0,0"
             id="path2362" />
        </g>
      </g>
    </g>
    <g
       id="g9346"
       transform="matrix(0.396875,0,0,0.396875,-234.9753,-232.09494)"
       style="display:inline">
      <g
         style="fill:#000000;fill-opacity:1"
         id="g897"
         transform="matrix(1.3333333,0,0,1.3333333,417.79544,597.87838)">
        <g
           id="use895"
           transform="translate(315.7132,168.403)">
          <path
             style="stroke:none"
             d="m 2.109375,-3.484375 c -1,0.234375 -1.78125,1.28125 -1.78125,2.234375 0,0.765625 0.515625,1.34375 1.265625,1.34375 0.9375,0 1.59375,-1.25 1.59375,-2.34375 0,-0.734375 -0.3125,-1.125 -0.59375,-1.484375 -0.28125,-0.359375 -0.75,-0.953125 -0.75,-1.3125 0,-0.171875 0.15625,-0.359375 0.4375,-0.359375 0.234375,0 0.390625,0.09375 0.5625,0.203125 C 3,-5.09375 3.15625,-5 3.28125,-5 c 0.203125,0 0.328125,-0.1875 0.328125,-0.3125 0,-0.171875 -0.140625,-0.203125 -0.421875,-0.265625 -0.421875,-0.09375 -0.53125,-0.09375 -0.65625,-0.09375 -0.625,0 -0.90625,0.34375 -0.90625,0.828125 0,0.421875 0.234375,0.875 0.484375,1.359375 z m 0.09375,0.171875 c 0.203125,0.375 0.4375,0.796875 0.4375,1.375 0,0.53125 -0.3125,1.859375 -1.046875,1.859375 -0.4375,0 -0.765625,-0.34375 -0.765625,-0.9375 0,-0.5 0.296875,-2 1.375,-2.296875 z m 0,0"
             id="path2366" />
        </g>
      </g>
      <g
         style="fill:#000000;fill-opacity:1"
         id="g901"
         transform="matrix(1.3333333,0,0,1.3333333,417.79544,597.87838)">
        <g
           id="use899"
           transform="translate(319.25562,169.599)">
          <path
             style="stroke:none"
             d="m 4.703125,-3.84375 c 0,-0.03125 -0.015625,-0.078125 -0.078125,-0.078125 -0.03125,0 -0.046875,0.015625 -0.09375,0.0625 l -0.40625,0.4375 c -0.046875,-0.0625 -0.359375,-0.5 -1.046875,-0.5 -1.359375,0 -2.6875,1.203125 -2.6875,2.453125 0,0.921875 0.71875,1.578125 1.71875,1.578125 0.296875,0 0.828125,-0.0625 1.40625,-0.546875 0.4375,-0.375 0.5625,-0.859375 0.5625,-0.90625 0,-0.0625 -0.0625,-0.0625 -0.09375,-0.0625 -0.078125,0 -0.078125,0.015625 -0.109375,0.078125 -0.21875,0.765625 -1,1.234375 -1.671875,1.234375 -0.59375,0 -1.25,-0.3125 -1.25,-1.1875 0,-0.171875 0.03125,-1.046875 0.671875,-1.75 0.390625,-0.4375 0.96875,-0.6875 1.5,-0.6875 0.65625,0 1.03125,0.46875 1.03125,1.09375 0,0.15625 -0.015625,0.1875 -0.015625,0.21875 0,0.078125 0.078125,0.078125 0.09375,0.078125 0.09375,0 0.09375,-0.015625 0.125,-0.125 z m 0,0"
             id="path2370" />
        </g>
      </g>
    </g>
    <path
       style="display:inline;fill:#000000;fill-opacity:1;fill-rule:nonzero;stroke:none;stroke-width:0.52917"
       d="m 51.011564,72.373275 0.247321,-1.860993 -1.221209,1.425855 0.973814,0.435286"
       id="path1888"
       inkscape:transform-center-x="0.6106045"
       inkscape:transform-center-y="0.9305705" />
    <path
       style="display:inline;fill:#000000;fill-opacity:1;fill-rule:nonzero;stroke:none;stroke-width:0.52917"
       d="m 49.652501,73.377567 0.344162,1.845539 0.716786,-1.735118 -1.060924,-0.110585"
       id="path2984-6-5-8-9-3-8-1"
       inkscape:transform-center-x="-0.18631135"
       inkscape:transform-center-y="-0.92285202" />
    <path
       id="path2187"
       style="fill:none;stroke:#000000;stroke-width:0.491339;stroke-linecap:round;stroke-miterlimit:4;stroke-dasharray:none"
       d="M 141.20106 137.47601 A 35.610344 35.610344 0 0 1 145.97166 119.67132 "
       transform="matrix(0.26458333,0,0,0.26458333,12.637217,38.849246)" />
    <g
       id="g9399"
       transform="matrix(0.396875,0,0,0.396875,-296.00895,-259.70922)"
       style="display:inline">
      <g
         style="fill:#000000;fill-opacity:1"
         id="g905"
         transform="matrix(1.3333333,0,0,1.3333333,417.79544,597.87838)">
        <g
           id="use903"
           transform="translate(326.82999,168.403)">
          <path
             style="stroke:none"
             d="m 2.34375,-1.3125 v 0.6875 c 0,0.296875 -0.015625,0.375 -0.609375,0.375 H 1.5625 V 0 c 0.328125,-0.03125 0.75,-0.03125 1.078125,-0.03125 0.34375,0 0.765625,0 1.09375,0.03125 V -0.25 H 3.5625 c -0.59375,0 -0.609375,-0.078125 -0.609375,-0.375 V -1.3125 H 3.75 v -0.25 H 2.953125 v -3.625 c 0,-0.15625 0,-0.203125 -0.125,-0.203125 -0.078125,0 -0.09375,0 -0.15625,0.09375 L 0.21875,-1.5625 v 0.25 z m 0.046875,-0.25 h -1.9375 l 1.9375,-2.96875 z m 0,0"
             id="path2374" />
        </g>
      </g>
      <g
         style="fill:#000000;fill-opacity:1"
         id="g909"
         transform="matrix(1.3333333,0,0,1.3333333,417.79544,597.87838)">
        <g
           id="use907"
           transform="translate(332.14359,168.403)">
          <path
             style="stroke:none"
             d="m 2.28125,-5.4375 c 0,-0.015625 0,-0.09375 -0.09375,-0.09375 -0.1875,0 -0.765625,0.0625 -0.96875,0.078125 C 1.140625,-5.4375 1.0625,-5.4375 1.0625,-5.296875 c 0,0.09375 0.0625,0.09375 0.1875,0.09375 0.390625,0 0.40625,0.0625 0.40625,0.140625 L 1.625,-4.90625 0.46875,-0.3125 c -0.03125,0.109375 -0.03125,0.125 -0.03125,0.171875 0,0.1875 0.15625,0.234375 0.234375,0.234375 0.09375,0 0.21875,-0.078125 0.265625,-0.171875 0.046875,-0.078125 0.40625,-1.546875 0.453125,-1.75 0.265625,0.03125 0.921875,0.15625 0.921875,0.6875 0,0.046875 0,0.078125 -0.03125,0.15625 C 2.265625,-0.890625 2.25,-0.78125 2.25,-0.703125 c 0,0.46875 0.328125,0.796875 0.734375,0.796875 0.25,0 0.453125,-0.140625 0.640625,-0.421875 0.1875,-0.359375 0.28125,-0.796875 0.28125,-0.8125 0,-0.078125 -0.078125,-0.078125 -0.09375,-0.078125 -0.078125,0 -0.09375,0.03125 -0.109375,0.140625 C 3.53125,-0.5 3.359375,-0.09375 3,-0.09375 c -0.140625,0 -0.25,-0.078125 -0.25,-0.375 0,-0.125 0.03125,-0.3125 0.0625,-0.4375 0.03125,-0.140625 0.03125,-0.171875 0.03125,-0.25 0,-0.515625 -0.5,-0.75 -1.171875,-0.828125 0.234375,-0.15625 0.5,-0.40625 0.671875,-0.59375 C 2.734375,-3 3.09375,-3.34375 3.484375,-3.34375 c 0.046875,0 0.0625,0 0.078125,0 0.09375,0.015625 0.109375,0.015625 0.171875,0.0625 C 3.75,-3.265625 3.75,-3.265625 3.765625,-3.25 3.375,-3.21875 3.3125,-2.90625 3.3125,-2.8125 c 0,0.125 0.078125,0.28125 0.296875,0.28125 0.203125,0 0.4375,-0.171875 0.4375,-0.484375 0,-0.25 -0.1875,-0.5 -0.546875,-0.5 -0.21875,0 -0.578125,0.0625 -1.15625,0.6875 -0.265625,0.3125 -0.578125,0.625 -0.890625,0.75 z m 0,0"
             id="path2378" />
        </g>
      </g>
      <g
         style="fill:#000000;fill-opacity:1"
         id="g913"
         transform="matrix(1.3333333,0,0,1.3333333,417.79544,597.87838)">
        <g
           id="use911"
           transform="translate(336.53989,168.403)">
          <path
             style="stroke:none"
             d="m 6.03125,-4.609375 c 0.078125,-0.3125 0.21875,-0.5625 0.859375,-0.59375 0.03125,0 0.125,0 0.125,-0.15625 0,0 0,-0.078125 -0.09375,-0.078125 -0.265625,0 -0.546875,0.015625 -0.8125,0.015625 -0.265625,0 -0.546875,-0.015625 -0.8125,-0.015625 -0.046875,0 -0.140625,0 -0.140625,0.15625 0,0.078125 0.078125,0.078125 0.140625,0.078125 0.453125,0.015625 0.546875,0.1875 0.546875,0.359375 0,0.015625 -0.015625,0.140625 -0.03125,0.171875 L 4.921875,-1.125 3.15625,-5.296875 C 3.09375,-5.4375 3.09375,-5.4375 2.90625,-5.4375 h -1.0625 c -0.15625,0 -0.234375,0 -0.234375,0.15625 0,0.078125 0.078125,0.078125 0.21875,0.078125 0.046875,0 0.546875,0 0.546875,0.078125 L 1.3125,-0.84375 C 1.234375,-0.53125 1.09375,-0.265625 0.453125,-0.25 0.390625,-0.25 0.3125,-0.234375 0.3125,-0.09375 0.3125,-0.03125 0.34375,0 0.421875,0 c 0.25,0 0.53125,-0.03125 0.796875,-0.03125 0.265625,0 0.546875,0.03125 0.8125,0.03125 0.046875,0 0.140625,0 0.140625,-0.15625 0,-0.078125 -0.0625,-0.09375 -0.15625,-0.09375 -0.46875,-0.015625 -0.53125,-0.1875 -0.53125,-0.34375 0,-0.0625 0.015625,-0.09375 0.03125,-0.1875 l 1.0625,-4.203125 c 0.03125,0.046875 0.03125,0.0625 0.0625,0.140625 L 4.625,-0.15625 C 4.6875,-0.015625 4.703125,0 4.78125,0 4.875,0 4.875,-0.03125 4.90625,-0.171875 Z m 0,0"
             id="path2382" />
        </g>
      </g>
    </g>
    <g
       id="g9377"
       transform="matrix(0.396875,0,0,0.396875,-324.67252,-277.97021)"
       style="display:inline">
      <g
         style="fill:#000000;fill-opacity:1"
         id="g929"
         transform="matrix(1.3333333,0,0,1.3333333,417.79544,597.87838)">
        <g
           id="use927"
           transform="translate(365.23001,168.403)">
          <path
             style="stroke:none"
             d="M 1.046875,-2.609375 V -2.8125 c 0,-2.015625 1,-2.296875 1.40625,-2.296875 0.1875,0 0.515625,0.046875 0.6875,0.3125 -0.109375,0 -0.4375,0 -0.4375,0.359375 0,0.25 0.203125,0.375 0.375,0.375 0.125,0 0.359375,-0.078125 0.359375,-0.390625 0,-0.46875 -0.34375,-0.859375 -1,-0.859375 -1.03125,0 -2.109375,1.03125 -2.109375,2.796875 0,2.125 0.9375,2.6875 1.671875,2.6875 0.890625,0 1.640625,-0.75 1.640625,-1.796875 0,-1.015625 -0.703125,-1.78125 -1.59375,-1.78125 -0.546875,0 -0.828125,0.40625 -1,0.796875 z M 2,-0.046875 c -0.5,0 -0.734375,-0.484375 -0.78125,-0.59375 -0.15625,-0.375 -0.15625,-1.015625 -0.15625,-1.15625 0,-0.625 0.265625,-1.421875 0.984375,-1.421875 0.125,0 0.484375,0 0.734375,0.5 0.140625,0.28125 0.140625,0.6875 0.140625,1.078125 0,0.390625 0,0.78125 -0.140625,1.078125 C 2.546875,-0.09375 2.1875,-0.046875 2,-0.046875 Z m 0,0"
             id="path2398" />
        </g>
      </g>
      <g
         style="fill:#000000;fill-opacity:1"
         id="g933"
         transform="matrix(1.3333333,0,0,1.3333333,417.79544,597.87838)">
        <g
           id="use931"
           transform="translate(370.54361,168.403)">
          <path
             style="stroke:none"
             d="m 2.28125,-5.4375 c 0,-0.015625 0,-0.09375 -0.09375,-0.09375 -0.1875,0 -0.765625,0.0625 -0.96875,0.078125 C 1.140625,-5.4375 1.0625,-5.4375 1.0625,-5.296875 c 0,0.09375 0.0625,0.09375 0.1875,0.09375 0.390625,0 0.40625,0.0625 0.40625,0.140625 L 1.625,-4.90625 0.46875,-0.3125 c -0.03125,0.109375 -0.03125,0.125 -0.03125,0.171875 0,0.1875 0.15625,0.234375 0.234375,0.234375 0.09375,0 0.21875,-0.078125 0.265625,-0.171875 0.046875,-0.078125 0.40625,-1.546875 0.453125,-1.75 0.265625,0.03125 0.921875,0.15625 0.921875,0.6875 0,0.046875 0,0.078125 -0.03125,0.15625 C 2.265625,-0.890625 2.25,-0.78125 2.25,-0.703125 c 0,0.46875 0.328125,0.796875 0.734375,0.796875 0.25,0 0.453125,-0.140625 0.640625,-0.421875 0.1875,-0.359375 0.28125,-0.796875 0.28125,-0.8125 0,-0.078125 -0.078125,-0.078125 -0.09375,-0.078125 -0.078125,0 -0.09375,0.03125 -0.109375,0.140625 C 3.53125,-0.5 3.359375,-0.09375 3,-0.09375 c -0.140625,0 -0.25,-0.078125 -0.25,-0.375 0,-0.125 0.03125,-0.3125 0.0625,-0.4375 0.03125,-0.140625 0.03125,-0.171875 0.03125,-0.25 0,-0.515625 -0.5,-0.75 -1.171875,-0.828125 0.234375,-0.15625 0.5,-0.40625 0.671875,-0.59375 C 2.734375,-3 3.09375,-3.34375 3.484375,-3.34375 c 0.046875,0 0.0625,0 0.078125,0 0.09375,0.015625 0.109375,0.015625 0.171875,0.0625 C 3.75,-3.265625 3.75,-3.265625 3.765625,-3.25 3.375,-3.21875 3.3125,-2.90625 3.3125,-2.8125 c 0,0.125 0.078125,0.28125 0.296875,0.28125 0.203125,0 0.4375,-0.171875 0.4375,-0.484375 0,-0.25 -0.1875,-0.5 -0.546875,-0.5 -0.21875,0 -0.578125,0.0625 -1.15625,0.6875 -0.265625,0.3125 -0.578125,0.625 -0.890625,0.75 z m 0,0"
             id="path2402-9" />
        </g>
      </g>
      <g
         style="fill:#000000;fill-opacity:1"
         id="g937"
         transform="matrix(1.3333333,0,0,1.3333333,417.79544,597.87838)">
        <g
           id="use935"
           transform="translate(374.93991,168.403)">
          <path
             style="stroke:none"
             d="m 6.03125,-4.609375 c 0.078125,-0.3125 0.21875,-0.5625 0.859375,-0.59375 0.03125,0 0.125,0 0.125,-0.15625 0,0 0,-0.078125 -0.09375,-0.078125 -0.265625,0 -0.546875,0.015625 -0.8125,0.015625 -0.265625,0 -0.546875,-0.015625 -0.8125,-0.015625 -0.046875,0 -0.140625,0 -0.140625,0.15625 0,0.078125 0.078125,0.078125 0.140625,0.078125 0.453125,0.015625 0.546875,0.1875 0.546875,0.359375 0,0.015625 -0.015625,0.140625 -0.03125,0.171875 L 4.921875,-1.125 3.15625,-5.296875 C 3.09375,-5.4375 3.09375,-5.4375 2.90625,-5.4375 h -1.0625 c -0.15625,0 -0.234375,0 -0.234375,0.15625 0,0.078125 0.078125,0.078125 0.21875,0.078125 0.046875,0 0.546875,0 0.546875,0.078125 L 1.3125,-0.84375 C 1.234375,-0.53125 1.09375,-0.265625 0.453125,-0.25 0.390625,-0.25 0.3125,-0.234375 0.3125,-0.09375 0.3125,-0.03125 0.34375,0 0.421875,0 c 0.25,0 0.53125,-0.03125 0.796875,-0.03125 0.265625,0 0.546875,0.03125 0.8125,0.03125 0.046875,0 0.140625,0 0.140625,-0.15625 0,-0.078125 -0.0625,-0.09375 -0.15625,-0.09375 -0.46875,-0.015625 -0.53125,-0.1875 -0.53125,-0.34375 0,-0.0625 0.015625,-0.09375 0.03125,-0.1875 l 1.0625,-4.203125 c 0.03125,0.046875 0.03125,0.0625 0.0625,0.140625 L 4.625,-0.15625 C 4.6875,-0.015625 4.703125,0 4.78125,0 4.875,0 4.875,-0.03125 4.90625,-0.171875 Z m 0,0"
             id="path2406-5" />
        </g>
      </g>
    </g>
    <path
       style="display:inline;fill:none;stroke:#000000;stroke-width:0.675002;stroke-linecap:round;stroke-linejoin:miter;stroke-miterlimit:4;stroke-dasharray:none;stroke-opacity:1"
       d="M 56.131532,73.32534 46.774569,67.923094"
       id="path9554-7"
       sodipodi:nodetypes="cc"
       inkscape:transform-center-x="7.4783764"
       inkscape:transform-center-y="-4.3176426" />
    <g
       id="g9356"
       transform="matrix(0.396875,0,0,0.396875,-325.63925,-252.61709)"
       style="display:inline">
      <g
         style="fill:#000000;fill-opacity:1"
         id="g943"
         transform="matrix(1.3333333,0,0,1.3333333,417.79544,597.87838)">
        <g
           id="use939"
           transform="translate(384.42999,168.403)">
          <path
             style="stroke:none"
             d="m 2.3125,-2.8125 c 0.65625,-0.203125 1.109375,-0.765625 1.109375,-1.390625 0,-0.65625 -0.703125,-1.109375 -1.46875,-1.109375 -0.796875,0 -1.40625,0.484375 -1.40625,1.09375 0,0.265625 0.171875,0.40625 0.40625,0.40625 0.25,0 0.40625,-0.171875 0.40625,-0.40625 0,-0.390625 -0.375,-0.390625 -0.484375,-0.390625 0.234375,-0.390625 0.765625,-0.5 1.046875,-0.5 0.328125,0 0.765625,0.171875 0.765625,0.890625 0,0.09375 -0.015625,0.5625 -0.21875,0.90625 -0.234375,0.390625 -0.515625,0.40625 -0.703125,0.421875 -0.0625,0 -0.265625,0.015625 -0.3125,0.015625 -0.0625,0.015625 -0.125,0.015625 -0.125,0.109375 0,0.078125 0.0625,0.078125 0.1875,0.078125 H 1.875 c 0.65625,0 0.953125,0.546875 0.953125,1.328125 0,1.078125 -0.5625,1.3125 -0.90625,1.3125 -0.34375,0 -0.9375,-0.140625 -1.21875,-0.609375 0.28125,0.046875 0.53125,-0.125 0.53125,-0.4375 0,-0.28125 -0.21875,-0.4375 -0.453125,-0.4375 -0.1875,0 -0.453125,0.109375 -0.453125,0.453125 0,0.734375 0.75,1.25 1.609375,1.25 0.984375,0 1.703125,-0.71875 1.703125,-1.53125 0,-0.65625 -0.5,-1.28125 -1.328125,-1.453125 z m 0,0"
             id="path2410" />
        </g>
        <g
           id="use941"
           transform="translate(388.41504,168.403)">
          <path
             style="stroke:none"
             d="m 3.671875,-2.546875 c 0,-0.640625 -0.046875,-1.28125 -0.328125,-1.875 -0.359375,-0.75 -1.015625,-0.890625 -1.359375,-0.890625 -0.46875,0 -1.046875,0.21875 -1.375,0.953125 C 0.34375,-3.8125 0.3125,-3.1875 0.3125,-2.546875 c 0,0.59375 0.03125,1.3125 0.359375,1.921875 0.34375,0.640625 0.921875,0.796875 1.3125,0.796875 0.4375,0 1.03125,-0.15625 1.390625,-0.921875 0.25,-0.546875 0.296875,-1.171875 0.296875,-1.796875 z M 1.984375,0 C 1.671875,0 1.203125,-0.203125 1.0625,-0.96875 0.96875,-1.4375 0.96875,-2.171875 0.96875,-2.640625 c 0,-0.515625 0,-1.046875 0.0625,-1.46875 C 1.1875,-5.0625 1.78125,-5.125 1.984375,-5.125 c 0.265625,0 0.78125,0.140625 0.9375,0.921875 C 3,-3.75 3,-3.140625 3,-2.640625 3,-2.046875 3,-1.5 2.921875,-1 c -0.125,0.765625 -0.578125,1 -0.9375,1 z m 0,0"
             id="path2414" />
        </g>
      </g>
      <g
         style="fill:#000000;fill-opacity:1"
         id="g947"
         transform="matrix(1.3333333,0,0,1.3333333,417.79544,597.87838)">
        <g
           id="use945"
           transform="translate(392.40039,165.511)">
          <path
             style="stroke:none"
             d="M 2.828125,-1.390625 C 2.828125,-2.0625 2.28125,-2.59375 1.625,-2.59375 c -0.671875,0 -1.203125,0.546875 -1.203125,1.1875 0,0.6875 0.546875,1.203125 1.203125,1.203125 0.671875,0 1.203125,-0.53125 1.203125,-1.1875 z M 1.625,-0.46875 c -0.515625,0 -0.921875,-0.421875 -0.921875,-0.921875 0,-0.515625 0.40625,-0.9375 0.921875,-0.9375 0.53125,0 0.9375,0.4375 0.9375,0.921875 0,0.53125 -0.421875,0.9375 -0.9375,0.9375 z m 0,0"
             id="path2418" />
        </g>
      </g>
    </g>
    <path
       style="display:inline;fill:none;stroke:#000000;stroke-width:0.195;stroke-linecap:round;stroke-linejoin:miter;stroke-miterlimit:4;stroke-dasharray:none;stroke-opacity:1"
       d="M 61.21632,86.886111 H 95.118568"
       id="path981" />
    <path
       style="display:inline;fill:none;stroke:#000000;stroke-width:0.524998;stroke-linecap:butt;stroke-linejoin:miter;stroke-miterlimit:4;stroke-dasharray:none;stroke-opacity:1"
       d="M 22.368533,74.88563 58.968554,47.435591"
       id="path2048"
       sodipodi:nodetypes="cc" />
    <path
       style="display:inline;fill:none;stroke:#000000;stroke-width:0.524998;stroke-linecap:butt;stroke-linejoin:miter;stroke-miterlimit:4;stroke-dasharray:none;stroke-opacity:1"
       d="M 96.46854,74.885585 59.8686,47.435618"
       id="path2267"
       sodipodi:nodetypes="cc" />
  </g>
</svg>
