<?xml version="1.0" encoding="UTF-8" standalone="no"?>
<!-- Created with Inkscape (http://www.inkscape.org/) -->

<svg
   width="174.76529mm"
   height="57.458969mm"
   viewBox="0 0 174.76529 57.458969"
   version="1.1"
   id="svg6232"
   inkscape:version="1.1.1 (3bf5ae0d25, 2021-09-20)"
   sodipodi:docname="rm_introexample_dark.svg"
   xmlns:inkscape="http://www.inkscape.org/namespaces/inkscape"
   xmlns:sodipodi="http://sodipodi.sourceforge.net/DTD/sodipodi-0.dtd"
   xmlns="http://www.w3.org/2000/svg"
   xmlns:svg="http://www.w3.org/2000/svg">
  <sodipodi:namedview
     id="namedview6234"
     pagecolor="#4d4d4d"
     bordercolor="#111111"
     borderopacity="1"
     inkscape:pageshadow="0"
     inkscape:pageopacity="0"
     inkscape:pagecheckerboard="1"
     inkscape:document-units="mm"
     showgrid="false"
     fit-margin-top="5"
     fit-margin-left="5"
     fit-margin-right="5"
     fit-margin-bottom="5"
     inkscape:zoom="1.2614478"
     inkscape:cx="305.60123"
     inkscape:cy="108.209"
     inkscape:window-width="1920"
     inkscape:window-height="1051"
     inkscape:window-x="-9"
     inkscape:window-y="-9"
     inkscape:window-maximized="1"
     inkscape:current-layer="layer1"
     inkscape:snap-intersection-paths="true"
     inkscape:snap-smooth-nodes="true" />
  <defs
     id="defs6229" />
  <g
     inkscape:label="Layer 1"
     inkscape:groupmode="layer"
     id="layer1"
     transform="translate(-11.197866,-81.596788)">
    <path
       style="display:inline;fill:none;stroke:#ffffff;stroke-width:0.525002;stroke-linecap:butt;stroke-linejoin:miter;stroke-miterlimit:4;stroke-dasharray:none;stroke-opacity:1"
       d="M 20.885651,126.42727 H 49.572919"
       id="path2588" />
    <path
       style="display:inline;fill:none;stroke:#ffffff;stroke-width:0.525002;stroke-linecap:butt;stroke-linejoin:miter;stroke-miterlimit:4;stroke-dasharray:none;stroke-opacity:1"
       d="M 50.135421,125.86469 V 112.10203"
       id="path2761" />
    <path
       style="display:inline;fill:none;stroke:#ffffff;stroke-width:0.525002;stroke-linecap:butt;stroke-linejoin:miter;stroke-miterlimit:4;stroke-dasharray:none;stroke-opacity:1"
       d="M 50.697925,126.42727 H 71.932182"
       id="path2765" />
    <path
       style="display:inline;fill:none;stroke:#ffffff;stroke-width:0.525002;stroke-linecap:butt;stroke-linejoin:miter;stroke-miterlimit:4;stroke-dasharray:none;stroke-opacity:1"
       d="m 95.416445,100.37359 h 6.328095"
       id="path3276"
       sodipodi:nodetypes="cc" />
    <path
       style="display:inline;fill:none;stroke:#ffffff;stroke-width:0.525002;stroke-linecap:butt;stroke-linejoin:miter;stroke-miterlimit:4;stroke-dasharray:none;stroke-opacity:1"
       d="m 125.22887,126.42727 h 21.2342"
       id="path3284" />
    <path
       style="display:inline;fill:none;stroke:#ffffff;stroke-width:0.525002;stroke-linecap:butt;stroke-linejoin:miter;stroke-miterlimit:4;stroke-dasharray:none;stroke-opacity:1"
       d="M 176.27534,126.42727 H 147.58808"
       id="path3288" />
    <path
       style="display:inline;fill:none;stroke:#ffffff;stroke-width:0.525002;stroke-linecap:butt;stroke-linejoin:miter;stroke-miterlimit:4;stroke-dasharray:none;stroke-opacity:1"
       d="m 121.50228,111.53944 h 24.96079"
       id="path3292" />
    <path
       style="display:inline;fill:none;stroke:#ffffff;stroke-width:0.525002;stroke-linecap:butt;stroke-linejoin:miter;stroke-miterlimit:4;stroke-dasharray:none;stroke-opacity:1"
       d="M 75.658712,111.53944 H 50.697925"
       id="path3296" />
    <path
       style="display:inline;fill:none;fill-opacity:1;stroke:#ffffff;stroke-width:0.375;stroke-linecap:round;stroke-linejoin:miter;stroke-miterlimit:4;stroke-dasharray:none;stroke-opacity:1"
       d="m 50.678751,126.28168 a 0.56260102,0.56249943 75.00149 0 1 -0.397725,0.68902 0.56260102,0.56249943 75.00149 0 1 -0.688942,-0.39787 0.56260102,0.56249943 75.00149 0 1 0.397719,-0.68898 0.56260102,0.56249943 75.00149 0 1 0.688948,0.39783 z"
       id="path3978" />
    <path
       style="display:inline;fill:none;fill-opacity:1;stroke:#ffffff;stroke-width:0.375;stroke-linecap:round;stroke-linejoin:miter;stroke-miterlimit:4;stroke-dasharray:none;stroke-opacity:1"
       d="m 50.678751,111.39385 a 0.56260102,0.56249943 75.00149 0 1 -0.397725,0.68902 0.56260102,0.56249943 75.00149 0 1 -0.688942,-0.39787 0.56260102,0.56249943 75.00149 0 1 0.397719,-0.68898 0.56260102,0.56249943 75.00149 0 1 0.688948,0.39783 z"
       id="path3980" />
    <path
       style="display:inline;fill:none;fill-opacity:1;stroke:#ffffff;stroke-width:0.375;stroke-linecap:round;stroke-linejoin:miter;stroke-miterlimit:4;stroke-dasharray:none;stroke-opacity:1"
       d="m 73.038014,126.28168 a 0.56260102,0.56249943 75.00149 0 1 -0.397725,0.68902 0.56260102,0.56249943 75.00149 0 1 -0.688943,-0.39787 0.56260102,0.56249943 75.00149 0 1 0.397721,-0.68898 0.56260102,0.56249943 75.00149 0 1 0.688947,0.39783 z"
       id="path3982" />
    <path
       style="display:inline;fill:none;fill-opacity:1;stroke:#ffffff;stroke-width:0.375;stroke-linecap:round;stroke-linejoin:miter;stroke-miterlimit:4;stroke-dasharray:none;stroke-opacity:1"
       d="m 76.764542,111.39385 a 0.56260102,0.56249943 75.00149 0 1 -0.397724,0.68901 0.56260102,0.56249943 75.00149 0 1 -0.688944,-0.39786 0.56260102,0.56249943 75.00149 0 1 0.397721,-0.68897 0.56260102,0.56249943 75.00149 0 1 0.688947,0.39782 z"
       id="path3984" />
    <path
       style="display:inline;fill:none;fill-opacity:1;stroke:#ffffff;stroke-width:0.375;stroke-linecap:round;stroke-linejoin:miter;stroke-miterlimit:4;stroke-dasharray:none;stroke-opacity:1"
       d="m 73.038014,100.22798 a 0.56260102,0.56249943 75.00149 0 1 -0.397725,0.68903 0.56260102,0.56249943 75.00149 0 1 -0.688943,-0.39788 0.56260102,0.56249943 75.00149 0 1 0.397721,-0.688959 0.56260102,0.56249943 75.00149 0 1 0.688947,0.397809 z"
       id="path3986" />
    <path
       style="display:inline;fill:none;fill-opacity:1;stroke:#ffffff;stroke-width:0.375;stroke-linecap:round;stroke-linejoin:miter;stroke-miterlimit:4;stroke-dasharray:none;stroke-opacity:1"
       d="m 84.217632,103.94993 a 0.56260102,0.56249943 75.00149 0 1 -0.397723,0.68901 0.56260102,0.56249943 75.00149 0 1 -0.688944,-0.39786 0.56260102,0.56249943 75.00149 0 1 0.39772,-0.68898 0.56260102,0.56249943 75.00149 0 1 0.688947,0.39783 z"
       id="path3988" />
    <path
       style="display:inline;fill:none;fill-opacity:1;stroke:#ffffff;stroke-width:0.375;stroke-linecap:round;stroke-linejoin:miter;stroke-miterlimit:4;stroke-dasharray:none;stroke-opacity:1"
       d="m 87.944193,92.784071 a 0.56260102,0.56249943 75.00149 0 1 -0.397723,0.68901 0.56260102,0.56249943 75.00149 0 1 -0.688944,-0.39786 0.56260102,0.56249943 75.00149 0 1 0.39772,-0.68897 0.56260102,0.56249943 75.00149 0 1 0.688947,0.39782 z"
       id="path3990" />
    <path
       style="display:inline;fill:none;fill-opacity:1;stroke:#ffffff;stroke-width:0.375;stroke-linecap:round;stroke-linejoin:miter;stroke-miterlimit:4;stroke-dasharray:none;stroke-opacity:1"
       d="m 95.397267,100.22798 a 0.56260102,0.56249943 75.00149 0 1 -0.397708,0.68903 0.56260102,0.56249943 75.00149 0 1 -0.688935,-0.39788 0.56260102,0.56249943 75.00149 0 1 0.397708,-0.688959 0.56260102,0.56249943 75.00149 0 1 0.688935,0.397809 z"
       id="path3992" />
    <path
       style="display:inline;fill:none;fill-opacity:1;stroke:#ffffff;stroke-width:0.375;stroke-linecap:round;stroke-linejoin:miter;stroke-miterlimit:4;stroke-dasharray:none;stroke-opacity:1"
       d="m 99.123845,87.201129 a 0.56260102,0.56249943 75.00149 0 1 -0.397709,0.68901 0.56260102,0.56249943 75.00149 0 1 -0.688935,-0.397875 0.56260102,0.56249943 75.00149 0 1 0.397709,-0.688965 0.56260102,0.56249943 75.00149 0 1 0.688935,0.39783 z"
       id="path3994" />
    <path
       style="display:inline;fill:none;fill-opacity:1;stroke:#ffffff;stroke-width:0.375;stroke-linecap:round;stroke-linejoin:miter;stroke-miterlimit:4;stroke-dasharray:none;stroke-opacity:1"
       d="m 102.85034,100.22798 a 0.56260102,0.56249943 75.00149 0 1 -0.39771,0.68903 0.56260102,0.56249943 75.00149 0 1 -0.68893,-0.39788 0.56260102,0.56249943 75.00149 0 1 0.39771,-0.688959 0.56260102,0.56249943 75.00149 0 1 0.68893,0.397809 z"
       id="path3996" />
    <path
       style="display:inline;fill:none;fill-opacity:1;stroke:#ffffff;stroke-width:0.375;stroke-linecap:round;stroke-linejoin:miter;stroke-miterlimit:4;stroke-dasharray:none;stroke-opacity:1"
       d="m 110.30346,92.784071 a 0.56260102,0.56249943 75.00149 0 1 -0.39771,0.68901 0.56260102,0.56249943 75.00149 0 1 -0.68894,-0.39786 0.56260102,0.56249943 75.00149 0 1 0.39771,-0.68897 0.56260102,0.56249943 75.00149 0 1 0.68894,0.39782 z"
       id="path3998" />
    <path
       style="display:inline;fill:none;fill-opacity:1;stroke:#ffffff;stroke-width:0.375;stroke-linecap:round;stroke-linejoin:miter;stroke-miterlimit:4;stroke-dasharray:none;stroke-opacity:1"
       d="m 114.02999,103.94993 a 0.56260102,0.56249943 75.00149 0 1 -0.39771,0.68901 0.56260102,0.56249943 75.00149 0 1 -0.68893,-0.39786 0.56260102,0.56249943 75.00149 0 1 0.39771,-0.68898 0.56260102,0.56249943 75.00149 0 1 0.68893,0.39783 z"
       id="path4000" />
    <path
       style="display:inline;fill:none;fill-opacity:1;stroke:#ffffff;stroke-width:0.375;stroke-linecap:round;stroke-linejoin:miter;stroke-miterlimit:4;stroke-dasharray:none;stroke-opacity:1"
       d="m 125.20964,100.22798 a 0.56260102,0.56249943 75.00149 0 1 -0.3977,0.68903 0.56260102,0.56249943 75.00149 0 1 -0.68894,-0.39788 0.56260102,0.56249943 75.00149 0 1 0.39771,-0.688959 0.56260102,0.56249943 75.00149 0 1 0.68893,0.397809 z"
       id="path4002" />
    <path
       style="display:inline;fill:none;fill-opacity:1;stroke:#ffffff;stroke-width:0.375;stroke-linecap:round;stroke-linejoin:miter;stroke-miterlimit:4;stroke-dasharray:none;stroke-opacity:1"
       d="m 121.48311,111.39385 a 0.56260102,0.56249943 75.00149 0 1 -0.39771,0.68901 0.56260102,0.56249943 75.00149 0 1 -0.68894,-0.39786 0.56260102,0.56249943 75.00149 0 1 0.39771,-0.68897 0.56260102,0.56249943 75.00149 0 1 0.68894,0.39782 z"
       id="path4004" />
    <path
       style="display:inline;fill:none;fill-opacity:1;stroke:#ffffff;stroke-width:0.375;stroke-linecap:round;stroke-linejoin:miter;stroke-miterlimit:4;stroke-dasharray:none;stroke-opacity:1"
       d="m 147.56891,111.39383 a 0.56260102,0.56249943 75.00149 0 1 -0.39771,0.68903 0.56260102,0.56249943 75.00149 0 1 -0.68897,-0.39788 0.56260102,0.56249943 75.00149 0 1 0.39774,-0.68896 0.56260102,0.56249943 75.00149 0 1 0.68894,0.39781 z"
       id="path4008" />
    <path
       style="display:inline;fill:none;fill-opacity:1;stroke:#ffffff;stroke-width:0.375;stroke-linecap:round;stroke-linejoin:miter;stroke-miterlimit:4;stroke-dasharray:none;stroke-opacity:1"
       d="m 147.56891,126.28168 a 0.56260102,0.56249943 75.00149 0 1 -0.39771,0.68901 0.56260102,0.56249943 75.00149 0 1 -0.68897,-0.39788 0.56260102,0.56249943 75.00149 0 1 0.39774,-0.68896 0.56260102,0.56249943 75.00149 0 1 0.68894,0.39783 z"
       id="path4010" />
    <g
       id="g1581-3-4"
       transform="matrix(0.30324396,0.30324396,-0.30324105,0.30324105,134.98615,108.03104)"
       style="display:inline;stroke-width:0.874432;stroke-miterlimit:4;stroke-dasharray:none;stroke:#ffffff"
       inkscape:transform-center-x="13.715629"
       inkscape:transform-center-y="12.998628">
      <path
         style="fill:none;stroke:#ffffff;stroke-width:0.874432;stroke-linecap:round;stroke-linejoin:miter;stroke-miterlimit:4;stroke-dasharray:none;stroke-opacity:1"
         d="M 4.1351584,57.024937 H 22.498278"
         id="path947-3-8" />
      <path
         style="fill:none;stroke:#ffffff;stroke-width:0.874432;stroke-linecap:round;stroke-linejoin:miter;stroke-miterlimit:4;stroke-dasharray:none;stroke-opacity:1"
         d="M 4.1351584,59.932577 H 22.498278"
         id="path949-75-0" />
      <path
         style="fill:none;stroke:#ffffff;stroke-width:0.874432;stroke-linecap:round;stroke-linejoin:miter;stroke-miterlimit:4;stroke-dasharray:none;stroke-opacity:1"
         d="m 14.770238,58.478757 a 1.4535281,1.4538286 0 0 1 -1.45353,1.45382 1.4535281,1.4538286 0 0 1 -1.45352,-1.45382 1.4535281,1.4538286 0 0 1 1.45352,-1.45382 1.4535281,1.4538286 0 0 1 1.45353,1.45382 z"
         id="path951-0-2" />
      <path
         style="fill:none;fill-opacity:1;stroke:#ffffff;stroke-width:0.874432;stroke-linecap:round;stroke-linejoin:miter;stroke-miterlimit:4;stroke-dasharray:none;stroke-opacity:1"
         d="m 14.628334,47.348597 a 1.3116408,1.3118903 0 0 1 -1.311647,1.311882 1.3116408,1.3118903 0 0 1 -1.311634,-1.311882 1.3116408,1.3118903 0 0 1 1.311634,-1.311882 1.3116408,1.3118903 0 0 1 1.311647,1.311882 z"
         id="path953-5-7" />
      <path
         style="fill:none;stroke:#ffffff;stroke-width:0.874432;stroke-linecap:round;stroke-linejoin:miter;stroke-miterlimit:4;stroke-dasharray:none;stroke-opacity:1"
         d="m 19.659908,58.478757 a 1.4535281,1.4538286 0 0 1 -1.45353,1.45382 1.4535281,1.4538286 0 0 1 -1.45352,-1.45382 1.4535281,1.4538286 0 0 1 1.45352,-1.45382 1.4535281,1.4538286 0 0 1 1.45353,1.45382 z"
         id="path955-1-5" />
      <path
         style="fill:none;stroke:#ffffff;stroke-width:0.874432;stroke-linecap:round;stroke-linejoin:miter;stroke-miterlimit:4;stroke-dasharray:none;stroke-opacity:1"
         d="m 9.8805684,58.478757 a 1.4535281,1.4538286 0 0 1 -1.45354,1.45382 1.4535281,1.4538286 0 0 1 -1.45352,-1.45382 1.4535281,1.4538286 0 0 1 1.45352,-1.45382 1.4535281,1.4538286 0 0 1 1.45354,1.45382 z"
         id="path957-8-2" />
      <path
         style="fill:none;stroke:#ffffff;stroke-width:0.874432;stroke-linecap:round;stroke-linejoin:miter;stroke-miterlimit:4;stroke-dasharray:none;stroke-opacity:1"
         d="m 5.6545784,59.932577 -1.51942,1.51974"
         id="path959-7-3" />
      <path
         style="fill:none;stroke:#ffffff;stroke-width:0.874432;stroke-linecap:round;stroke-linejoin:miter;stroke-miterlimit:4;stroke-dasharray:none;stroke-opacity:1"
         d="m 12.034538,59.932577 -4.2326796,4.23356"
         id="path961-85-6" />
      <path
         style="fill:none;stroke:#ffffff;stroke-width:0.874432;stroke-linecap:round;stroke-linejoin:miter;stroke-miterlimit:4;stroke-dasharray:none;stroke-opacity:1"
         d="m 15.491408,59.932577 -4.23268,4.23356"
         id="path963-2-1" />
      <path
         style="fill:none;stroke:#ffffff;stroke-width:0.874432;stroke-linecap:round;stroke-linejoin:miter;stroke-miterlimit:4;stroke-dasharray:none;stroke-opacity:1"
         d="m 22.498288,62.704757 -1.46107,1.46138"
         id="path965-88-8" />
      <path
         style="fill:none;stroke:#ffffff;stroke-width:0.874432;stroke-linecap:round;stroke-linejoin:miter;stroke-miterlimit:4;stroke-dasharray:none;stroke-opacity:1"
         d="m 18.948278,59.932577 -4.23267,4.23356"
         id="path967-52-6" />
      <path
         style="fill:none;stroke:#ffffff;stroke-width:0.874432;stroke-linecap:round;stroke-linejoin:miter;stroke-miterlimit:4;stroke-dasharray:none;stroke-opacity:1"
         d="m 22.405148,59.932577 -4.23268,4.23356"
         id="path969-1-0" />
      <path
         style="fill:none;stroke:#ffffff;stroke-width:0.874432;stroke-linecap:round;stroke-linejoin:miter;stroke-miterlimit:4;stroke-dasharray:none;stroke-opacity:1"
         d="m 8.5776684,59.932577 -4.23268,4.23356"
         id="path971-9-0" />
      <path
         id="path1893-5-9"
         style="fill:none;stroke:#ffffff;stroke-width:0.944882;stroke-linecap:round;stroke-linejoin:miter;stroke-miterlimit:4;stroke-dasharray:none;stroke-opacity:1"
         d="m 17.522113,48.987794 4.604695,9.195731 H 11.655402 l 4.604681,-9.195703"
         transform="matrix(0.92543641,0,0,0.92544532,-2.3149455,3.1792651)" />
    </g>
    <g
       id="g1565-2-1"
       style="display:inline;stroke-width:0.874011;stroke-miterlimit:4;stroke-dasharray:none;stroke:#ffffff"
       transform="matrix(0.4288811,0,0,0.42923135,171.47627,92.979111)">
      <path
         style="fill:none;fill-opacity:1;stroke:#ffffff;stroke-width:0.874011;stroke-linecap:round;stroke-linejoin:round;stroke-miterlimit:4;stroke-dasharray:none;stroke-opacity:1"
         d="M 3.3199484,87.604047 H 21.683068"
         id="path1345-08-3" />
      <path
         style="fill:none;fill-opacity:1;stroke:#ffffff;stroke-width:0.874011;stroke-linecap:round;stroke-linejoin:round;stroke-miterlimit:4;stroke-dasharray:none;stroke-opacity:1"
         d="m 4.8393684,87.604047 -1.51942,1.52004"
         id="path1343-0-1" />
      <path
         style="fill:none;fill-opacity:1;stroke:#ffffff;stroke-width:0.874011;stroke-linecap:round;stroke-linejoin:round;stroke-miterlimit:4;stroke-dasharray:none;stroke-opacity:1"
         d="m 11.219328,87.604047 -4.2326796,4.23442"
         id="path1341-5-8" />
      <path
         style="fill:none;fill-opacity:1;stroke:#ffffff;stroke-width:0.874011;stroke-linecap:round;stroke-linejoin:round;stroke-miterlimit:4;stroke-dasharray:none;stroke-opacity:1"
         d="m 14.676198,87.604047 -4.23268,4.23442"
         id="path1339-6-7" />
      <path
         style="fill:none;fill-opacity:1;stroke:#ffffff;stroke-width:0.874011;stroke-linecap:round;stroke-linejoin:round;stroke-miterlimit:4;stroke-dasharray:none;stroke-opacity:1"
         d="m 21.683078,90.376797 -1.46106,1.46167"
         id="path1337-98-1" />
      <path
         style="fill:none;fill-opacity:1;stroke:#ffffff;stroke-width:0.874011;stroke-linecap:round;stroke-linejoin:round;stroke-miterlimit:4;stroke-dasharray:none;stroke-opacity:1"
         d="m 18.133078,87.604047 -4.23267,4.23442"
         id="path1335-6-2" />
      <path
         style="fill:none;fill-opacity:1;stroke:#ffffff;stroke-width:0.874011;stroke-linecap:round;stroke-linejoin:round;stroke-miterlimit:4;stroke-dasharray:none;stroke-opacity:1"
         d="m 21.589948,87.604047 -4.23267,4.23442"
         id="path1333-6-7" />
      <path
         style="fill:none;fill-opacity:1;stroke:#ffffff;stroke-width:0.874011;stroke-linecap:round;stroke-linejoin:round;stroke-miterlimit:4;stroke-dasharray:none;stroke-opacity:1"
         d="m 7.7624684,87.604047 -4.23268,4.23442"
         id="path1331-3-8" />
      <path
         style="fill:none;fill-opacity:1;stroke:#ffffff;stroke-width:0.874012;stroke-linecap:round;stroke-linejoin:round;stroke-miterlimit:4;stroke-dasharray:none;stroke-opacity:1"
         d="m 13.813213,77.925737 a 1.3117307,1.3103099 0 0 1 -1.311737,1.310303 1.3117307,1.3103099 0 0 1 -1.311724,-1.310303 1.3117307,1.3103099 0 0 1 1.311724,-1.310304 1.3117307,1.3103099 0 0 1 1.311737,1.310304 z"
         id="path973-14-3" />
      <path
         id="path1726-9-3"
         style="fill:none;fill-opacity:1;stroke:#ffffff;stroke-width:0.944882;stroke-linecap:round;stroke-linejoin:round;stroke-miterlimit:4;stroke-dasharray:none;stroke-opacity:1"
         d="m 16.70556,79.567671 4.606318,9.208446 H 10.839756 l 4.606319,-9.208449"
         transform="matrix(0.92537304,0,0,0.92461796,-2.3746397,5.5200531)" />
    </g>
    <g
       id="g1565-2-1-1"
       style="display:inline;stroke-width:0.874011;stroke-miterlimit:4;stroke-dasharray:none;stroke:#ffffff"
       transform="matrix(0.4288811,0,0,0.42923135,14.961426,92.979111)">
      <path
         style="fill:none;fill-opacity:1;stroke:#ffffff;stroke-width:0.874011;stroke-linecap:round;stroke-linejoin:round;stroke-miterlimit:4;stroke-dasharray:none;stroke-opacity:1"
         d="M 3.3199484,87.604047 H 21.683068"
         id="path1345-08-3-5" />
      <path
         style="fill:none;fill-opacity:1;stroke:#ffffff;stroke-width:0.874011;stroke-linecap:round;stroke-linejoin:round;stroke-miterlimit:4;stroke-dasharray:none;stroke-opacity:1"
         d="m 4.8393684,87.604047 -1.51942,1.52004"
         id="path1343-0-1-3" />
      <path
         style="fill:none;fill-opacity:1;stroke:#ffffff;stroke-width:0.874011;stroke-linecap:round;stroke-linejoin:round;stroke-miterlimit:4;stroke-dasharray:none;stroke-opacity:1"
         d="m 11.219328,87.604047 -4.2326796,4.23442"
         id="path1341-5-8-6" />
      <path
         style="fill:none;fill-opacity:1;stroke:#ffffff;stroke-width:0.874011;stroke-linecap:round;stroke-linejoin:round;stroke-miterlimit:4;stroke-dasharray:none;stroke-opacity:1"
         d="m 14.676198,87.604047 -4.23268,4.23442"
         id="path1339-6-7-7" />
      <path
         style="fill:none;fill-opacity:1;stroke:#ffffff;stroke-width:0.874011;stroke-linecap:round;stroke-linejoin:round;stroke-miterlimit:4;stroke-dasharray:none;stroke-opacity:1"
         d="m 21.683078,90.376797 -1.46106,1.46167"
         id="path1337-98-1-1" />
      <path
         style="fill:none;fill-opacity:1;stroke:#ffffff;stroke-width:0.874011;stroke-linecap:round;stroke-linejoin:round;stroke-miterlimit:4;stroke-dasharray:none;stroke-opacity:1"
         d="m 18.133078,87.604047 -4.23267,4.23442"
         id="path1335-6-2-5" />
      <path
         style="fill:none;fill-opacity:1;stroke:#ffffff;stroke-width:0.874011;stroke-linecap:round;stroke-linejoin:round;stroke-miterlimit:4;stroke-dasharray:none;stroke-opacity:1"
         d="m 21.589948,87.604047 -4.23267,4.23442"
         id="path1333-6-7-9" />
      <path
         style="fill:none;fill-opacity:1;stroke:#ffffff;stroke-width:0.874011;stroke-linecap:round;stroke-linejoin:round;stroke-miterlimit:4;stroke-dasharray:none;stroke-opacity:1"
         d="m 7.7624684,87.604047 -4.23268,4.23442"
         id="path1331-3-8-5" />
      <path
         style="fill:none;fill-opacity:1;stroke:#ffffff;stroke-width:0.874012;stroke-linecap:round;stroke-linejoin:round;stroke-miterlimit:4;stroke-dasharray:none;stroke-opacity:1"
         d="m 13.813213,77.925737 a 1.3117307,1.3103099 0 0 1 -1.311737,1.310303 1.3117307,1.3103099 0 0 1 -1.311724,-1.310303 1.3117307,1.3103099 0 0 1 1.311724,-1.310304 1.3117307,1.3103099 0 0 1 1.311737,1.310304 z"
         id="path973-14-3-1" />
      <path
         id="path1726-9-3-5"
         style="fill:none;fill-opacity:1;stroke:#ffffff;stroke-width:0.944882;stroke-linecap:round;stroke-linejoin:round;stroke-miterlimit:4;stroke-dasharray:none;stroke-opacity:1"
         d="m 16.70556,79.567671 4.606318,9.208446 H 10.839756 l 4.606319,-9.208449"
         transform="matrix(0.92537304,0,0,0.92461796,-2.3746397,5.5200531)" />
    </g>
    <path
       style="display:inline;fill:none;stroke:#ffffff;stroke-width:0.525002;stroke-linecap:butt;stroke-linejoin:miter;stroke-miterlimit:4;stroke-dasharray:none;stroke-opacity:1"
       d="m 50.603671,111.85122 21.422772,14.26427"
       id="path2389"
       sodipodi:nodetypes="cc" />
    <path
       style="display:inline;fill:none;stroke:#ffffff;stroke-width:0.525002;stroke-linecap:butt;stroke-linejoin:miter;stroke-miterlimit:4;stroke-dasharray:none;stroke-opacity:1"
       d="m 20.826344,126.17595 28.805837,-14.3852"
       id="path2646"
       sodipodi:nodetypes="cc" />
    <path
       style="display:inline;fill:none;stroke:#ffffff;stroke-width:0.525002;stroke-linecap:butt;stroke-linejoin:miter;stroke-miterlimit:4;stroke-dasharray:none;stroke-opacity:1"
       d="m 72.631282,125.88155 3.453331,-13.79638"
       id="path3065"
       sodipodi:nodetypes="cc" />
    <path
       style="display:inline;fill:none;stroke:#ffffff;stroke-width:0.525002;stroke-linecap:butt;stroke-linejoin:miter;stroke-miterlimit:4;stroke-dasharray:none;stroke-opacity:1"
       d="M 76.043113,111.0058 72.672787,100.90724"
       id="path3674"
       sodipodi:nodetypes="cc" />
    <path
       style="fill:none;stroke:#ffffff;stroke-width:0.525;stroke-linecap:butt;stroke-linejoin:miter;stroke-miterlimit:4;stroke-dasharray:none;stroke-opacity:1"
       d="M 50.63866,111.28813 71.991449,100.6249"
       id="path3678"
       sodipodi:nodetypes="cc" />
    <path
       style="display:inline;fill:none;stroke:#ffffff;stroke-width:0.525002;stroke-linecap:butt;stroke-linejoin:miter;stroke-miterlimit:4;stroke-dasharray:none;stroke-opacity:1"
       d="M 83.14058,103.91783 73.028399,100.55128"
       id="path4293"
       sodipodi:nodetypes="cc" />
    <path
       style="display:inline;fill:none;stroke:#ffffff;stroke-width:0.525002;stroke-linecap:butt;stroke-linejoin:miter;stroke-miterlimit:4;stroke-dasharray:none;stroke-opacity:1"
       d="m 76.619208,111.14193 6.65709,-6.6489"
       id="path4295"
       sodipodi:nodetypes="cc" />
    <path
       style="display:inline;fill:none;stroke:#ffffff;stroke-width:0.525002;stroke-linecap:butt;stroke-linejoin:miter;stroke-miterlimit:4;stroke-dasharray:none;stroke-opacity:1"
       d="m 84.207995,103.91784 10.112272,-3.36658"
       id="path4944"
       sodipodi:nodetypes="cc" />
    <path
       style="display:inline;fill:none;stroke:#ffffff;stroke-width:0.525002;stroke-linecap:butt;stroke-linejoin:miter;stroke-miterlimit:4;stroke-dasharray:none;stroke-opacity:1"
       d="M 94.455921,99.976054 87.798901,93.32721"
       id="path5497"
       sodipodi:nodetypes="cc" />
    <path
       style="display:inline;fill:none;stroke:#ffffff;stroke-width:0.525002;stroke-linecap:butt;stroke-linejoin:miter;stroke-miterlimit:4;stroke-dasharray:none;stroke-opacity:1"
       d="M 83.852395,103.5619 87.222768,93.463285"
       id="path5499"
       sodipodi:nodetypes="cc" />
    <path
       style="fill:none;stroke:#ffffff;stroke-width:0.525;stroke-linecap:butt;stroke-linejoin:miter;stroke-miterlimit:4;stroke-dasharray:none;stroke-opacity:1"
       d="M 86.897625,93.180971 72.997927,100.12228"
       id="path5501"
       sodipodi:nodetypes="cc" />
    <path
       style="fill:none;stroke:#ffffff;stroke-width:0.525;stroke-linecap:butt;stroke-linejoin:miter;stroke-miterlimit:4;stroke-dasharray:none;stroke-opacity:1"
       d="m 98.077301,87.59802 -10.1732,5.080332"
       id="path6204"
       sodipodi:nodetypes="cc" />
    <path
       style="display:inline;fill:none;stroke:#ffffff;stroke-width:0.525002;stroke-linecap:butt;stroke-linejoin:miter;stroke-miterlimit:4;stroke-dasharray:none;stroke-opacity:1"
       d="M 98.425799,87.887578 95.00867,99.832725"
       id="path6206"
       sodipodi:nodetypes="cc" />
    <path
       style="display:inline;fill:none;stroke:#ffffff;stroke-width:0.525002;stroke-linecap:butt;stroke-linejoin:miter;stroke-miterlimit:4;stroke-dasharray:none;stroke-opacity:1"
       d="m 147.52886,111.79076 28.80579,14.38518"
       id="path7807"
       sodipodi:nodetypes="cc" />
    <path
       style="display:inline;fill:none;stroke:#ffffff;stroke-width:0.525002;stroke-linecap:butt;stroke-linejoin:miter;stroke-miterlimit:4;stroke-dasharray:none;stroke-opacity:1"
       d="M 147.02559,125.86469 V 112.10202"
       id="path7809"
       sodipodi:nodetypes="cc" />
    <path
       style="display:inline;fill:none;stroke:#ffffff;stroke-width:0.525002;stroke-linecap:butt;stroke-linejoin:miter;stroke-miterlimit:4;stroke-dasharray:none;stroke-opacity:1"
       d="M 125.13459,126.11547 146.55737,111.8512"
       id="path7811"
       sodipodi:nodetypes="cc" />
    <path
       style="display:inline;fill:none;stroke:#ffffff;stroke-width:0.525002;stroke-linecap:butt;stroke-linejoin:miter;stroke-miterlimit:4;stroke-dasharray:none;stroke-opacity:1"
       d="m 121.07639,112.0852 3.45334,13.7964"
       id="path8516"
       sodipodi:nodetypes="cc" />
    <path
       style="fill:none;stroke:#ffffff;stroke-width:0.525;stroke-linecap:butt;stroke-linejoin:miter;stroke-miterlimit:4;stroke-dasharray:none;stroke-opacity:1"
       d="m 146.52231,111.28811 -21.35272,-10.6632"
       id="path9143"
       sodipodi:nodetypes="cc" />
    <path
       style="display:inline;fill:none;stroke:#ffffff;stroke-width:0.525002;stroke-linecap:butt;stroke-linejoin:miter;stroke-miterlimit:4;stroke-dasharray:none;stroke-opacity:1"
       d="m 124.48823,100.90721 -3.37036,10.09862"
       id="path9145"
       sodipodi:nodetypes="cc" />
    <path
       style="display:inline;fill:none;stroke:#ffffff;stroke-width:0.525002;stroke-linecap:butt;stroke-linejoin:miter;stroke-miterlimit:4;stroke-dasharray:none;stroke-opacity:1"
       d="m 114.02036,103.91784 10.11229,-3.36658"
       id="path9890"
       sodipodi:nodetypes="cc" />
    <path
       style="display:inline;fill:none;stroke:#ffffff;stroke-width:0.525002;stroke-linecap:butt;stroke-linejoin:miter;stroke-miterlimit:4;stroke-dasharray:none;stroke-opacity:1"
       d="m 113.88471,104.49306 6.65705,6.64885"
       id="path9892"
       sodipodi:nodetypes="cc" />
    <path
       style="fill:none;stroke:#ffffff;stroke-width:0.525;stroke-linecap:butt;stroke-linejoin:miter;stroke-miterlimit:4;stroke-dasharray:none;stroke-opacity:1"
       d="M 124.16306,100.12227 110.2634,93.180988"
       id="path10637"
       sodipodi:nodetypes="cc" />
    <path
       style="display:inline;fill:none;stroke:#ffffff;stroke-width:0.525002;stroke-linecap:butt;stroke-linejoin:miter;stroke-miterlimit:4;stroke-dasharray:none;stroke-opacity:1"
       d="M 113.30857,103.56187 109.93823,93.463317"
       id="path10639"
       sodipodi:nodetypes="cc" />
    <path
       style="fill:none;stroke:#ffffff;stroke-width:0.525;stroke-linecap:butt;stroke-linejoin:miter;stroke-miterlimit:4;stroke-dasharray:none;stroke-opacity:1"
       d="m 109.25688,92.678343 -10.173091,-5.0803"
       id="path10643"
       sodipodi:nodetypes="cc" />
    <path
       style="display:inline;fill:none;stroke:#ffffff;stroke-width:0.525002;stroke-linecap:butt;stroke-linejoin:miter;stroke-miterlimit:4;stroke-dasharray:none;stroke-opacity:1"
       d="M 102.15229,99.832697 98.735249,87.887604"
       id="path11384"
       sodipodi:nodetypes="cc" />
    <path
       style="display:inline;fill:none;stroke:#ffffff;stroke-width:0.525002;stroke-linecap:butt;stroke-linejoin:miter;stroke-miterlimit:4;stroke-dasharray:none;stroke-opacity:1"
       d="m 102.70502,99.976078 6.65712,-6.648919"
       id="path11386"
       sodipodi:nodetypes="cc" />
    <path
       style="display:inline;fill:none;stroke:#ffffff;stroke-width:0.525002;stroke-linecap:butt;stroke-linejoin:miter;stroke-miterlimit:4;stroke-dasharray:none;stroke-opacity:1"
       d="m 102.84074,100.55128 10.11223,3.36656"
       id="path11388"
       sodipodi:nodetypes="cc" />
  </g>
</svg>
