<?xml version="1.0" encoding="UTF-8" standalone="no"?>
<!-- Created with Inkscape (http://www.inkscape.org/) -->

<svg
   width="43.062042mm"
   height="45.795353mm"
   viewBox="0 0 43.062042 45.795353"
   version="1.1"
   id="svg3596"
   inkscape:version="1.1.1 (3bf5ae0d25, 2021-09-20)"
   sodipodi:docname="rm_node_coordinate_system_light.svg"
   xmlns:inkscape="http://www.inkscape.org/namespaces/inkscape"
   xmlns:sodipodi="http://sodipodi.sourceforge.net/DTD/sodipodi-0.dtd"
   xmlns="http://www.w3.org/2000/svg"
   xmlns:svg="http://www.w3.org/2000/svg">
  <sodipodi:namedview
     id="namedview3598"
     pagecolor="#ffffff"
     bordercolor="#111111"
     borderopacity="1"
     inkscape:pageshadow="0"
     inkscape:pageopacity="0"
     inkscape:pagecheckerboard="1"
     inkscape:document-units="mm"
     showgrid="false"
     fit-margin-top="5"
     fit-margin-left="5"
     fit-margin-right="5"
     fit-margin-bottom="5"
     inkscape:zoom="2.1241178"
     inkscape:cx="-45.430625"
     inkscape:cy="79.797833"
     inkscape:window-width="1920"
     inkscape:window-height="1051"
     inkscape:window-x="-9"
     inkscape:window-y="-9"
     inkscape:window-maximized="1"
     inkscape:current-layer="layer1" />
  <defs
     id="defs3593" />
  <g
     inkscape:label="Layer 1"
     inkscape:groupmode="layer"
     id="layer1"
     transform="translate(-82.702996,-123.24673)">
    <path
       style="display:inline;fill:none;stroke:#000000;stroke-width:0.26992;stroke-linecap:round;stroke-linejoin:miter;stroke-miterlimit:4;stroke-dasharray:none;stroke-opacity:1"
       d="m 88.501206,130.57452 -4.1e-4,29.93642"
       id="path962-7-8-7"
       sodipodi:nodetypes="cc" />
    <path
       style="display:inline;fill:none;stroke:#000000;stroke-width:0.26992;stroke-linecap:round;stroke-linejoin:miter;stroke-miterlimit:4;stroke-dasharray:none;stroke-opacity:1"
       d="M 118.43725,160.51131 88.500836,160.5109"
       id="path962-7-8-7-5"
       sodipodi:nodetypes="cc" />
    <g
       style="display:inline;fill:#000000;fill-opacity:1"
       id="g178-1-1-9-2"
       transform="matrix(0.52916664,0,0,0.52916664,0.85131453,69.880729)">
      <g
         id="use176-0-5-6-1"
         transform="translate(169.19539,114.605)">
        <path
           style="stroke:none"
           d="m 3.875,-3.03125 c 0.03125,-0.109375 0.03125,-0.125 0.03125,-0.1875 0,-0.140625 -0.109375,-0.21875 -0.234375,-0.21875 -0.078125,0 -0.203125,0.046875 -0.28125,0.171875 C 3.375,-3.234375 3.3125,-2.984375 3.28125,-2.84375 3.234375,-2.625 3.171875,-2.421875 3.125,-2.203125 l -0.359375,1.4375 c -0.03125,0.125 -0.375,0.671875 -0.90625,0.671875 C 1.453125,-0.09375 1.375,-0.4375 1.375,-0.734375 1.375,-1.09375 1.5,-1.59375 1.78125,-2.296875 1.90625,-2.625 1.9375,-2.703125 1.9375,-2.875 c 0,-0.359375 -0.25,-0.640625 -0.65625,-0.640625 -0.75,0 -1.046875,1.15625 -1.046875,1.21875 0,0.078125 0.078125,0.078125 0.09375,0.078125 0.078125,0 0.09375,-0.015625 0.125,-0.140625 0.21875,-0.75 0.53125,-0.984375 0.8125,-0.984375 0.0625,0 0.1875,0 0.1875,0.25 0,0.203125 -0.078125,0.40625 -0.125,0.5625 C 1,-1.6875 0.859375,-1.234375 0.859375,-0.859375 c 0,0.703125 0.5,0.953125 0.96875,0.953125 0.3125,0 0.59375,-0.140625 0.8125,-0.359375 C 2.53125,0.140625 2.4375,0.53125 2.125,0.953125 c -0.21875,0.28125 -0.515625,0.5 -0.875,0.5 -0.125,0 -0.484375,-0.015625 -0.609375,-0.328125 0.125,0 0.234375,0 0.34375,-0.09375 0.078125,-0.078125 0.15625,-0.171875 0.15625,-0.328125 0,-0.25 -0.21875,-0.28125 -0.296875,-0.28125 -0.1875,0 -0.453125,0.125 -0.453125,0.515625 0,0.40625 0.359375,0.703125 0.859375,0.703125 0.8125,0 1.640625,-0.734375 1.859375,-1.625 z m 0,0"
           id="path1505-8-2-4-74" />
      </g>
    </g>
    <g
       style="display:inline;fill:#000000;fill-opacity:1"
       id="g174-1-2-7-6"
       transform="matrix(0.52916664,0,0,0.52916664,32.230701,103.34733)">
      <g
         id="use172-7-4-9-9"
         transform="translate(162.4248,114.605)">
        <path
           style="stroke:none"
           d="m 2.65625,-2.40625 c 0.046875,-0.203125 0.234375,-0.9375 0.796875,-0.9375 0.03125,0 0.234375,0 0.390625,0.09375 -0.21875,0.046875 -0.375,0.25 -0.375,0.4375 0,0.125 0.078125,0.28125 0.296875,0.28125 0.171875,0 0.4375,-0.140625 0.4375,-0.46875 0,-0.40625 -0.46875,-0.515625 -0.75,-0.515625 C 3,-3.515625 2.71875,-3.09375 2.625,-2.921875 2.421875,-3.4375 1.984375,-3.515625 1.765625,-3.515625 c -0.828125,0 -1.28125,1.015625 -1.28125,1.21875 0,0.078125 0.078125,0.078125 0.09375,0.078125 0.0625,0 0.078125,-0.015625 0.09375,-0.078125 C 0.953125,-3.140625 1.46875,-3.34375 1.75,-3.34375 c 0.140625,0 0.421875,0.0625 0.421875,0.53125 0,0.25 -0.125,0.78125 -0.421875,1.890625 -0.125,0.5 -0.40625,0.828125 -0.765625,0.828125 -0.046875,0 -0.234375,0 -0.390625,-0.09375 0.1875,-0.046875 0.375,-0.203125 0.375,-0.4375 0,-0.21875 -0.1875,-0.28125 -0.296875,-0.28125 -0.234375,0 -0.4375,0.21875 -0.4375,0.46875 0,0.359375 0.390625,0.53125 0.75,0.53125 0.515625,0 0.8125,-0.5625 0.828125,-0.609375 0.09375,0.296875 0.390625,0.609375 0.859375,0.609375 0.828125,0 1.28125,-1.03125 1.28125,-1.234375 0,-0.078125 -0.078125,-0.078125 -0.09375,-0.078125 -0.078125,0 -0.09375,0.03125 -0.109375,0.09375 -0.265625,0.84375 -0.796875,1.03125 -1.0625,1.03125 -0.3125,0 -0.4375,-0.25 -0.4375,-0.515625 0,-0.171875 0.046875,-0.359375 0.140625,-0.703125 z m 0,0"
           id="path1501-15-8-3-9" />
      </g>
    </g>
    <path
       id="path7371-3-6"
       d="m 118.06537,159.71313 0.37188,0.79818 -0.37204,0.80103 c 0.14955,-0.0755 0.76486,-0.31579 1.29292,-0.47347 0.5642,-0.1692 1.07699,-0.28604 1.40691,-0.32789 -0.32994,-0.042 -0.84304,-0.15775 -1.40703,-0.32448 -0.52801,-0.16077 -0.86994,-0.30367 -1.29297,-0.4734 z"
       style="display:inline;fill:#000000;fill-opacity:1;fill-rule:nonzero;stroke:none;stroke-width:0.529166"
       sodipodi:nodetypes="ccccccc"
       inkscape:transform-center-x="1.3502682"
       inkscape:transform-center-y="0.0018130416" />
    <path
       id="path10131-5-6-2-11-9"
       d="m 87.703026,130.94638 0.79818,-0.37186 0.80103,0.37204 c -0.07545,-0.14955 -0.315795,-0.76488 -0.473475,-1.29292 -0.1692,-0.5642 -0.286035,-1.077 -0.327885,-1.40691 -0.042,0.32994 -0.157755,0.84304 -0.32448,1.40701 -0.160755,0.52803 -0.303675,0.86994 -0.4734,1.29299 z"
       style="display:inline;fill:#000000;fill-opacity:1;fill-rule:nonzero;stroke:none;stroke-width:0.529166"
       sodipodi:nodetypes="ccccccc"
       inkscape:transform-center-x="-0.0065849609"
       inkscape:transform-center-y="5.1023673" />
  </g>
</svg>
