<?xml version="1.0" encoding="UTF-8" standalone="no"?>
<!-- Created with Inkscape (http://www.inkscape.org/) -->

<svg
   width="59.88924mm"
   height="55.207458mm"
   viewBox="0 0 59.889241 55.207459"
   version="1.1"
   id="svg2324"
   inkscape:version="1.1.1 (3bf5ae0d25, 2021-09-20)"
   sodipodi:docname="rm_roller_direction_dark.svg"
   xmlns:inkscape="http://www.inkscape.org/namespaces/inkscape"
   xmlns:sodipodi="http://sodipodi.sourceforge.net/DTD/sodipodi-0.dtd"
   xmlns="http://www.w3.org/2000/svg"
   xmlns:svg="http://www.w3.org/2000/svg">
  <sodipodi:namedview
     id="namedview2326"
     pagecolor="#4d4d4d"
     bordercolor="#111111"
     borderopacity="1"
     inkscape:pageshadow="0"
     inkscape:pageopacity="0"
     inkscape:pagecheckerboard="1"
     inkscape:document-units="mm"
     showgrid="false"
     fit-margin-top="5"
     fit-margin-left="5"
     fit-margin-right="5"
     fit-margin-bottom="5"
     inkscape:zoom="5.0457912"
     inkscape:cx="134.66669"
     inkscape:cy="118.01915"
     inkscape:window-width="1920"
     inkscape:window-height="1051"
     inkscape:window-x="-9"
     inkscape:window-y="-9"
     inkscape:window-maximized="1"
     inkscape:current-layer="layer1" />
  <defs
     id="defs2321" />
  <g
     inkscape:label="Layer 1"
     inkscape:groupmode="layer"
     id="layer1"
     transform="translate(-52.96921,-59.656887)">
    <g
       id="g1581-4-1"
       transform="matrix(0.11099499,0.41423894,-0.41423497,0.11099393,86.419175,93.45983)"
       style="display:inline;stroke-width:0.87443232;stroke-miterlimit:4;stroke-dasharray:none"
       inkscape:transform-center-x="13.983571"
       inkscape:transform-center-y="5.2506731">
      <path
         style="fill:none;stroke:#ffffff;stroke-width:0.87443232;stroke-linecap:round;stroke-linejoin:miter;stroke-miterlimit:4;stroke-dasharray:none;stroke-opacity:1"
         d="M 4.1351584,57.024937 H 22.498278"
         id="path947-6-5" />
      <path
         style="fill:none;stroke:#ffffff;stroke-width:0.87443232;stroke-linecap:round;stroke-linejoin:miter;stroke-miterlimit:4;stroke-dasharray:none;stroke-opacity:1"
         d="M 4.1351584,59.932577 H 22.498278"
         id="path949-7-7" />
      <path
         style="fill:none;stroke:#ffffff;stroke-width:0.87443232;stroke-linecap:round;stroke-linejoin:miter;stroke-miterlimit:4;stroke-dasharray:none;stroke-opacity:1"
         d="m 14.770238,58.478757 a 1.4535281,1.4538286 0 0 1 -1.45353,1.45382 1.4535281,1.4538286 0 0 1 -1.45352,-1.45382 1.4535281,1.4538286 0 0 1 1.45352,-1.45382 1.4535281,1.4538286 0 0 1 1.45353,1.45382 z"
         id="path951-5-5" />
      <path
         style="fill:none;fill-opacity:1;stroke:#ffffff;stroke-width:0.87443232;stroke-linecap:round;stroke-linejoin:miter;stroke-miterlimit:4;stroke-dasharray:none;stroke-opacity:1"
         d="m 14.628334,47.348597 a 1.3116408,1.3118903 0 0 1 -1.311647,1.311882 1.3116408,1.3118903 0 0 1 -1.311634,-1.311882 1.3116408,1.3118903 0 0 1 1.311634,-1.311882 1.3116408,1.3118903 0 0 1 1.311647,1.311882 z"
         id="path953-6-5" />
      <path
         style="fill:none;stroke:#ffffff;stroke-width:0.87443232;stroke-linecap:round;stroke-linejoin:miter;stroke-miterlimit:4;stroke-dasharray:none;stroke-opacity:1"
         d="m 19.659908,58.478757 a 1.4535281,1.4538286 0 0 1 -1.45353,1.45382 1.4535281,1.4538286 0 0 1 -1.45352,-1.45382 1.4535281,1.4538286 0 0 1 1.45352,-1.45382 1.4535281,1.4538286 0 0 1 1.45353,1.45382 z"
         id="path955-6-4" />
      <path
         style="fill:none;stroke:#ffffff;stroke-width:0.87443232;stroke-linecap:round;stroke-linejoin:miter;stroke-miterlimit:4;stroke-dasharray:none;stroke-opacity:1"
         d="m 9.8805684,58.478757 a 1.4535281,1.4538286 0 0 1 -1.45354,1.45382 1.4535281,1.4538286 0 0 1 -1.45352,-1.45382 1.4535281,1.4538286 0 0 1 1.45352,-1.45382 1.4535281,1.4538286 0 0 1 1.45354,1.45382 z"
         id="path957-1-5" />
      <path
         style="fill:none;stroke:#ffffff;stroke-width:0.87443232;stroke-linecap:round;stroke-linejoin:miter;stroke-miterlimit:4;stroke-dasharray:none;stroke-opacity:1"
         d="m 5.6545784,59.932577 -1.51942,1.51974"
         id="path959-3-1" />
      <path
         style="fill:none;stroke:#ffffff;stroke-width:0.87443232;stroke-linecap:round;stroke-linejoin:miter;stroke-miterlimit:4;stroke-dasharray:none;stroke-opacity:1"
         d="m 12.034538,59.932577 -4.2326796,4.23356"
         id="path961-8-7" />
      <path
         style="fill:none;stroke:#ffffff;stroke-width:0.87443232;stroke-linecap:round;stroke-linejoin:miter;stroke-miterlimit:4;stroke-dasharray:none;stroke-opacity:1"
         d="m 15.491408,59.932577 -4.23268,4.23356"
         id="path963-9-2" />
      <path
         style="fill:none;stroke:#ffffff;stroke-width:0.87443232;stroke-linecap:round;stroke-linejoin:miter;stroke-miterlimit:4;stroke-dasharray:none;stroke-opacity:1"
         d="m 22.498288,62.704757 -1.46107,1.46138"
         id="path965-8-7" />
      <path
         style="fill:none;stroke:#ffffff;stroke-width:0.87443232;stroke-linecap:round;stroke-linejoin:miter;stroke-miterlimit:4;stroke-dasharray:none;stroke-opacity:1"
         d="m 18.948278,59.932577 -4.23267,4.23356"
         id="path967-5-1" />
      <path
         style="fill:none;stroke:#ffffff;stroke-width:0.87443232;stroke-linecap:round;stroke-linejoin:miter;stroke-miterlimit:4;stroke-dasharray:none;stroke-opacity:1"
         d="m 22.405148,59.932577 -4.23268,4.23356"
         id="path969-5-3" />
      <path
         style="fill:none;stroke:#ffffff;stroke-width:0.87443232;stroke-linecap:round;stroke-linejoin:miter;stroke-miterlimit:4;stroke-dasharray:none;stroke-opacity:1"
         d="m 8.5776684,59.932577 -4.23268,4.23356"
         id="path971-0-3" />
      <path
         id="path1893-3-4"
         style="fill:none;stroke:#ffffff;stroke-width:0.9448819;stroke-linecap:round;stroke-linejoin:miter;stroke-miterlimit:4;stroke-dasharray:none;stroke-opacity:1"
         d="m 17.522113,48.987794 4.604695,9.195731 H 11.655402 l 4.604681,-9.195703"
         transform="matrix(0.92543641,0,0,0.92544532,-2.3149455,3.1792651)" />
    </g>
    <path
       style="display:inline;fill:#ffffff;fill-opacity:1;fill-rule:nonzero;stroke:none;stroke-width:0.35278"
       d="m 97.11163,98.390166 -0.916167,-1.638617 -0.124383,1.873223 1.04055,-0.234606"
       id="path2984-6-2-1-2"
       inkscape:transform-center-x="-1.4965532"
       inkscape:transform-center-y="3.5358102" />
    <path
       id="path6453-3-0-9"
       style="display:inline;fill:none;stroke:#ffffff;stroke-width:0.195;stroke-linecap:round;stroke-miterlimit:4;stroke-dasharray:none"
       d="m 96.466814,97.84844 c 0.47416,2.093386 0.714127,4.23447 0.714127,6.3831"
       sodipodi:nodetypes="cc" />
    <g
       style="display:inline;fill:#ffffff;fill-opacity:1;stroke-width:0.666667"
       id="g178-1-1-7-1"
       transform="matrix(0.52916663,0,0,0.52916663,-19.365741,6.2908888)">
      <g
         id="use176-0-5-3-3"
         transform="translate(169.19539,114.605)"
         style="stroke-width:0.666667;fill:#ffffff">
        <path
           style="stroke:none;stroke-width:0.666667;fill:#ffffff"
           d="m 3.875,-3.03125 c 0.03125,-0.109375 0.03125,-0.125 0.03125,-0.1875 0,-0.140625 -0.109375,-0.21875 -0.234375,-0.21875 -0.078125,0 -0.203125,0.046875 -0.28125,0.171875 C 3.375,-3.234375 3.3125,-2.984375 3.28125,-2.84375 3.234375,-2.625 3.171875,-2.421875 3.125,-2.203125 l -0.359375,1.4375 c -0.03125,0.125 -0.375,0.671875 -0.90625,0.671875 C 1.453125,-0.09375 1.375,-0.4375 1.375,-0.734375 1.375,-1.09375 1.5,-1.59375 1.78125,-2.296875 1.90625,-2.625 1.9375,-2.703125 1.9375,-2.875 c 0,-0.359375 -0.25,-0.640625 -0.65625,-0.640625 -0.75,0 -1.046875,1.15625 -1.046875,1.21875 0,0.078125 0.078125,0.078125 0.09375,0.078125 0.078125,0 0.09375,-0.015625 0.125,-0.140625 0.21875,-0.75 0.53125,-0.984375 0.8125,-0.984375 0.0625,0 0.1875,0 0.1875,0.25 0,0.203125 -0.078125,0.40625 -0.125,0.5625 C 1,-1.6875 0.859375,-1.234375 0.859375,-0.859375 c 0,0.703125 0.5,0.953125 0.96875,0.953125 0.3125,0 0.59375,-0.140625 0.8125,-0.359375 C 2.53125,0.140625 2.4375,0.53125 2.125,0.953125 c -0.21875,0.28125 -0.515625,0.5 -0.875,0.5 -0.125,0 -0.484375,-0.015625 -0.609375,-0.328125 0.125,0 0.234375,0 0.34375,-0.09375 0.078125,-0.078125 0.15625,-0.171875 0.15625,-0.328125 0,-0.25 -0.21875,-0.28125 -0.296875,-0.28125 -0.1875,0 -0.453125,0.125 -0.453125,0.515625 0,0.40625 0.359375,0.703125 0.859375,0.703125 0.8125,0 1.640625,-0.734375 1.859375,-1.625 z m 0,0"
           id="path1505-8-2-6-3" />
      </g>
    </g>
    <g
       style="display:inline;fill:#ffffff;fill-opacity:1;stroke-width:0.666667"
       id="g174-1-2-9-5"
       transform="matrix(0.52916663,0,0,0.52916663,19.324129,47.067886)">
      <g
         id="use172-7-4-5-1"
         transform="translate(162.4248,114.605)"
         style="stroke-width:0.666667;fill:#ffffff">
        <path
           style="stroke:none;stroke-width:0.666667;fill:#ffffff"
           d="m 2.65625,-2.40625 c 0.046875,-0.203125 0.234375,-0.9375 0.796875,-0.9375 0.03125,0 0.234375,0 0.390625,0.09375 -0.21875,0.046875 -0.375,0.25 -0.375,0.4375 0,0.125 0.078125,0.28125 0.296875,0.28125 0.171875,0 0.4375,-0.140625 0.4375,-0.46875 0,-0.40625 -0.46875,-0.515625 -0.75,-0.515625 C 3,-3.515625 2.71875,-3.09375 2.625,-2.921875 2.421875,-3.4375 1.984375,-3.515625 1.765625,-3.515625 c -0.828125,0 -1.28125,1.015625 -1.28125,1.21875 0,0.078125 0.078125,0.078125 0.09375,0.078125 0.0625,0 0.078125,-0.015625 0.09375,-0.078125 C 0.953125,-3.140625 1.46875,-3.34375 1.75,-3.34375 c 0.140625,0 0.421875,0.0625 0.421875,0.53125 0,0.25 -0.125,0.78125 -0.421875,1.890625 -0.125,0.5 -0.40625,0.828125 -0.765625,0.828125 -0.046875,0 -0.234375,0 -0.390625,-0.09375 0.1875,-0.046875 0.375,-0.203125 0.375,-0.4375 0,-0.21875 -0.1875,-0.28125 -0.296875,-0.28125 -0.234375,0 -0.4375,0.21875 -0.4375,0.46875 0,0.359375 0.390625,0.53125 0.75,0.53125 0.515625,0 0.8125,-0.5625 0.828125,-0.609375 0.09375,0.296875 0.390625,0.609375 0.859375,0.609375 0.828125,0 1.28125,-1.03125 1.28125,-1.234375 0,-0.078125 -0.078125,-0.078125 -0.09375,-0.078125 -0.078125,0 -0.09375,0.03125 -0.109375,0.09375 -0.265625,0.84375 -0.796875,1.03125 -1.0625,1.03125 -0.3125,0 -0.4375,-0.25 -0.4375,-0.515625 0,-0.171875 0.046875,-0.359375 0.140625,-0.703125 z m 0,0"
           id="path1501-15-8-7-6" />
      </g>
    </g>
    <g
       id="g1932-5-6-6"
       transform="matrix(1.5,0,0,1.5,117.72996,-108.4412)"
       style="display:inline;stroke-width:0.666667;fill:#ffffff">
      <g
         style="display:inline;fill:#ffffff;fill-opacity:1;stroke-width:0.666667"
         id="g182-3-2-3-3"
         transform="matrix(0.35277776,0,0,0.35277776,-71.027203,97.388392)">
        <g
           id="use180-0-0-3-1"
           transform="translate(175.59775,114.605)"
           style="stroke-width:0.666667;fill:#ffffff">
          <path
             style="stroke:none;stroke-width:0.666667;fill:#ffffff"
             d="m 2.65625,-2.40625 c 0.046875,-0.203125 0.234375,-0.9375 0.796875,-0.9375 0.03125,0 0.234375,0 0.390625,0.09375 -0.21875,0.046875 -0.375,0.25 -0.375,0.4375 0,0.125 0.078125,0.28125 0.296875,0.28125 0.171875,0 0.4375,-0.140625 0.4375,-0.46875 0,-0.40625 -0.46875,-0.515625 -0.75,-0.515625 C 3,-3.515625 2.71875,-3.09375 2.625,-2.921875 2.421875,-3.4375 1.984375,-3.515625 1.765625,-3.515625 c -0.828125,0 -1.28125,1.015625 -1.28125,1.21875 0,0.078125 0.078125,0.078125 0.09375,0.078125 0.0625,0 0.078125,-0.015625 0.09375,-0.078125 C 0.953125,-3.140625 1.46875,-3.34375 1.75,-3.34375 c 0.140625,0 0.421875,0.0625 0.421875,0.53125 0,0.25 -0.125,0.78125 -0.421875,1.890625 -0.125,0.5 -0.40625,0.828125 -0.765625,0.828125 -0.046875,0 -0.234375,0 -0.390625,-0.09375 0.1875,-0.046875 0.375,-0.203125 0.375,-0.4375 0,-0.21875 -0.1875,-0.28125 -0.296875,-0.28125 -0.234375,0 -0.4375,0.21875 -0.4375,0.46875 0,0.359375 0.390625,0.53125 0.75,0.53125 0.515625,0 0.8125,-0.5625 0.828125,-0.609375 0.09375,0.296875 0.390625,0.609375 0.859375,0.609375 0.828125,0 1.28125,-1.03125 1.28125,-1.234375 0,-0.078125 -0.078125,-0.078125 -0.09375,-0.078125 -0.078125,0 -0.09375,0.03125 -0.109375,0.09375 -0.265625,0.84375 -0.796875,1.03125 -1.0625,1.03125 -0.3125,0 -0.4375,-0.25 -0.4375,-0.515625 0,-0.171875 0.046875,-0.359375 0.140625,-0.703125 z m 0,0"
             id="path1509-1-8-0-3" />
        </g>
      </g>
      <g
         style="display:inline;fill:#ffffff;fill-opacity:1;stroke-width:0.666667"
         id="g186-2-0-5-7"
         transform="matrix(0.35277776,0,0,0.35277776,-71.027203,97.388392)">
        <g
           id="use184-1-2-9-6"
           transform="translate(180.15601,111.713)"
           style="stroke-width:0.666667;fill:#ffffff">
          <path
             style="stroke:none;stroke-width:0.666667;fill:#ffffff"
             d="m 1.625,-2.640625 c 0.03125,-0.09375 0.046875,-0.125 0.046875,-0.171875 0,-0.171875 -0.15625,-0.3125 -0.328125,-0.3125 -0.21875,0 -0.28125,0.1875 -0.3125,0.265625 L 0.296875,-0.4375 c 0,0.015625 -0.03125,0.078125 -0.03125,0.09375 0,0.0625 0.171875,0.109375 0.21875,0.109375 0.046875,0 0.046875,0 0.078125,-0.09375 z m 0,0"
             id="path1513-43-0-0-8" />
        </g>
      </g>
    </g>
    <g
       id="g1924-4-9-7"
       transform="matrix(1.5,0,0,1.5,69.340938,-138.60381)"
       style="display:inline;stroke-width:0.666667">
      <g
         style="display:inline;fill:#ffffff;fill-opacity:1;stroke-width:0.666667"
         id="g190-7-2-8-3"
         transform="matrix(0.35277776,0,0,0.35277776,-71.027203,97.388392)">
        <g
           id="use188-8-2-0-8"
           transform="translate(184.6064,114.605)"
           style="stroke-width:0.666667;fill:#ffffff">
          <path
             style="stroke:none;stroke-width:0.666667;fill:#ffffff"
             d="m 3.875,-3.03125 c 0.03125,-0.109375 0.03125,-0.125 0.03125,-0.1875 0,-0.140625 -0.109375,-0.21875 -0.234375,-0.21875 -0.078125,0 -0.203125,0.046875 -0.28125,0.171875 C 3.375,-3.234375 3.3125,-2.984375 3.28125,-2.84375 3.234375,-2.625 3.171875,-2.421875 3.125,-2.203125 l -0.359375,1.4375 c -0.03125,0.125 -0.375,0.671875 -0.90625,0.671875 C 1.453125,-0.09375 1.375,-0.4375 1.375,-0.734375 1.375,-1.09375 1.5,-1.59375 1.78125,-2.296875 1.90625,-2.625 1.9375,-2.703125 1.9375,-2.875 c 0,-0.359375 -0.25,-0.640625 -0.65625,-0.640625 -0.75,0 -1.046875,1.15625 -1.046875,1.21875 0,0.078125 0.078125,0.078125 0.09375,0.078125 0.078125,0 0.09375,-0.015625 0.125,-0.140625 0.21875,-0.75 0.53125,-0.984375 0.8125,-0.984375 0.0625,0 0.1875,0 0.1875,0.25 0,0.203125 -0.078125,0.40625 -0.125,0.5625 C 1,-1.6875 0.859375,-1.234375 0.859375,-0.859375 c 0,0.703125 0.5,0.953125 0.96875,0.953125 0.3125,0 0.59375,-0.140625 0.8125,-0.359375 C 2.53125,0.140625 2.4375,0.53125 2.125,0.953125 c -0.21875,0.28125 -0.515625,0.5 -0.875,0.5 -0.125,0 -0.484375,-0.015625 -0.609375,-0.328125 0.125,0 0.234375,0 0.34375,-0.09375 0.078125,-0.078125 0.15625,-0.171875 0.15625,-0.328125 0,-0.25 -0.21875,-0.28125 -0.296875,-0.28125 -0.1875,0 -0.453125,0.125 -0.453125,0.515625 0,0.40625 0.359375,0.703125 0.859375,0.703125 0.8125,0 1.640625,-0.734375 1.859375,-1.625 z m 0,0"
             id="path1517-4-9-9-2" />
        </g>
      </g>
      <g
         style="display:inline;fill:#ffffff;fill-opacity:1;stroke-width:0.666667"
         id="g194-6-9-4-0"
         transform="matrix(0.35277776,0,0,0.35277776,-71.027203,97.388392)">
        <g
           id="use192-6-1-5-8"
           transform="translate(188.79919,111.713)"
           style="stroke-width:0.666667;fill:#ffffff">
          <path
             style="stroke:none;stroke-width:0.666667;fill:#ffffff"
             d="m 1.625,-2.640625 c 0.03125,-0.09375 0.046875,-0.125 0.046875,-0.171875 0,-0.171875 -0.15625,-0.3125 -0.328125,-0.3125 -0.21875,0 -0.28125,0.1875 -0.3125,0.265625 L 0.296875,-0.4375 c 0,0.015625 -0.03125,0.078125 -0.03125,0.09375 0,0.0625 0.171875,0.109375 0.21875,0.109375 0.046875,0 0.046875,0 0.078125,-0.09375 z m 0,0"
             id="path1521-1-4-6-9" />
        </g>
      </g>
    </g>
    <g
       style="display:inline;fill:#ffffff;fill-opacity:1;stroke-width:0.666667"
       id="g198-0-0-6"
       transform="matrix(0.52916669,0,0,0.52916669,-4.4190687,40.990289)">
      <g
         id="use196-43-1-1"
         transform="translate(193.2496,114.605)"
         style="stroke-width:0.666667;fill:#ffffff">
        <path
           style="stroke:none;stroke-width:0.666667;fill:#ffffff"
           d="M 3.625,-3.984375 C 3.625,-4.515625 3.484375,-5.625 2.671875,-5.625 c -1.109375,0 -2.34375,2.25 -2.34375,4.078125 0,0.75 0.234375,1.640625 0.96875,1.640625 1.125,0 2.328125,-2.296875 2.328125,-4.078125 z m -2.453125,1.09375 C 1.3125,-3.40625 1.46875,-4.046875 1.796875,-4.609375 2.015625,-5 2.296875,-5.4375 2.65625,-5.4375 c 0.390625,0 0.4375,0.5 0.4375,0.953125 0,0.390625 -0.0625,0.796875 -0.25,1.59375 z m 1.59375,0.25 c -0.078125,0.375 -0.25,1.046875 -0.546875,1.625 -0.28125,0.53125 -0.578125,0.921875 -0.921875,0.921875 -0.265625,0 -0.4375,-0.21875 -0.4375,-0.96875 0,-0.328125 0.046875,-0.796875 0.25,-1.578125 z m 0,0"
           id="path1525-2-2-5" />
      </g>
    </g>
    <path
       id="path7371-1-1"
       d="m 105.15879,103.43368 0.37187,0.79818 -0.37203,0.80103 c 0.14955,-0.0754 0.76486,-0.3158 1.29291,-0.47348 0.5642,-0.1692 1.077,-0.28603 1.40691,-0.32788 -0.32993,-0.042 -0.84304,-0.15776 -1.40702,-0.32448 -0.52802,-0.16077 -0.86993,-0.30368 -1.29298,-0.4734 z"
       style="display:inline;fill:#ffffff;fill-opacity:1;fill-rule:nonzero;stroke:none;stroke-width:0.352777"
       sodipodi:nodetypes="ccccccc"
       inkscape:transform-center-x="1.3502646"
       inkscape:transform-center-y="0.0018104153" />
    <path
       id="path10131-5-6-9-9"
       d="m 103.69581,93.916919 0.56579,0.67473 -0.15204,0.870029 c 0.12492,-0.111585 0.65707,-0.502999 1.12631,-0.791972 0.50119,-0.309462 0.96627,-0.555037 1.27411,-0.680849 -0.32956,0.04483 -0.85514,0.06582 -1.44306,0.05074 -0.55163,-0.0186 -0.91889,-0.06818 -1.37144,-0.122624 z"
       style="display:inline;fill:#ffffff;fill-opacity:1;fill-rule:nonzero;stroke:none;stroke-width:0.352777"
       sodipodi:nodetypes="ccccccc"
       inkscape:transform-center-x="5.3187575"
       inkscape:transform-center-y="2.6473407" />
    <path
       id="path7395-1-1"
       d="m 57.96921,68.819531 0.674732,-0.565785 0.870029,0.152041 c -0.111585,-0.124929 -0.502999,-0.657075 -0.791972,-1.126316 -0.309464,-0.501187 -0.555037,-0.966269 -0.680852,-1.274114 0.04483,0.329562 0.06582,0.855147 0.05075,1.443061 -0.0186,0.551638 -0.06818,0.91889 -0.122624,1.371447 z"
       style="display:inline;fill:#ffffff;fill-opacity:1;fill-rule:nonzero;stroke:none;stroke-width:0.352777"
       sodipodi:nodetypes="ccccccc"
       inkscape:transform-center-x="-2.6473375"
       inkscape:transform-center-y="5.3187457" />
    <path
       id="path10131-5-6-2-4-8"
       d="m 67.485968,67.356552 0.798179,-0.371874 0.801034,0.372038 c -0.07545,-0.14955 -0.315799,-0.764868 -0.473477,-1.292915 -0.169199,-0.5642 -0.286036,-1.076995 -0.327885,-1.406914 -0.042,0.329935 -0.157755,0.843047 -0.324477,1.407025 -0.160756,0.528024 -0.303679,0.869934 -0.473403,1.292979 z"
       style="display:inline;fill:#ffffff;fill-opacity:1;fill-rule:nonzero;stroke:none;stroke-width:0.352777"
       sodipodi:nodetypes="ccccccc"
       inkscape:transform-center-x="-0.0065824869"
       inkscape:transform-center-y="5.1023547" />
    <path
       style="display:inline;fill:none;stroke:#ffffff;stroke-width:0.27;stroke-linecap:round;stroke-linejoin:miter;stroke-miterlimit:4;stroke-dasharray:none;stroke-opacity:1"
       d="M 104.2616,94.591649 69.445223,103.92034"
       id="path12416-3"
       sodipodi:nodetypes="cc" />
    <path
       style="display:inline;fill:none;stroke:#ffffff;stroke-width:0.27;stroke-linecap:round;stroke-linejoin:miter;stroke-miterlimit:4;stroke-dasharray:none;stroke-opacity:1"
       d="m 105.53066,104.23186 -36.044445,-2.7e-4"
       id="path12475-7"
       sodipodi:nodetypes="cc" />
    <path
       style="display:inline;fill:none;stroke:#ffffff;stroke-width:0.27;stroke-linecap:round;stroke-linejoin:miter;stroke-miterlimit:4;stroke-dasharray:none;stroke-opacity:1"
       d="m 68.284147,66.984678 -2.65e-4,36.044452"
       id="path12515-4"
       sodipodi:nodetypes="cc" />
    <path
       style="display:inline;fill:none;stroke:#ffffff;stroke-width:0.27;stroke-linecap:round;stroke-linejoin:miter;stroke-miterlimit:4;stroke-dasharray:none;stroke-opacity:1"
       d="m 58.643942,68.253746 9.32869,34.816374"
       id="path12631-0"
       sodipodi:nodetypes="cc" />
  </g>
</svg>
